<?xml version="1.0" standalone="no"?>
<!DOCTYPE svg PUBLIC "-//W3C//DTD SVG 1.1//EN" "http://www.w3.org/Graphics/SVG/1.1/DTD/svg11.dtd" >
<svg xmlns="http://www.w3.org/2000/svg">
<metadata></metadata>
<defs>
<font id="wc-bolditbold_italic" horiz-adv-x="1366" >
<font-face units-per-em="2048" ascent="1638" descent="-410" />
<missing-glyph horiz-adv-x="811" />
<glyph horiz-adv-x="2048" />
<glyph horiz-adv-x="2048" />
<glyph unicode="&#xd;" horiz-adv-x="598" d="M43 0l74 330h323l-73 -330h-324zM254 500l16 499l103 447h323l-100 -447l-209 -499h-133z" />
<glyph unicode=" " horiz-adv-x="811" d="M143 1397q0 64 49 103q43 34 103 34q58 0 97 -33q42 -35 42 -94l-2 -37l-109 -534h-65l-111 512q-4 36 -4 49zM569 1397q0 65 49 103q44 34 105 34q56 0 95 -33q42 -35 42 -94q0 -25 -2 -37l-109 -534h-63l-113 512q-4 36 -4 49z" />
<glyph unicode="!" d="M100 381v252h229l27 196h-205v254h240l51 363h256l-53 -363h205l49 363h256l-49 -363h186v-254h-221l-27 -196h201v-252h-238l-53 -381h-256l53 381h-202l-54 -381h-252l50 381h-193zM583 633h203l29 196h-203z" />
<glyph unicode="&#x22;" d="M26 238l285 170q78 -107 235 -146l90 326q-191 60 -271 118q-140 100 -140 273q0 182 143 308q152 134 397 134q33 0 103 -4l32 115h115l-35 -133q252 -61 385 -221l-264 -179q-66 97 -192 136l-82 -293q234 -68 315 -150q105 -104 105 -262q0 -263 -263 -391 q-153 -76 -397 -70l-55 -198h-119l57 211q-266 56 -444 256zM567 1008q0 -87 149 -131l74 272q-142 -4 -195 -66q-28 -35 -28 -75zM665 252q93 8 133 27q100 43 100 135q0 93 -149 143z" />
<glyph unicode="#" horiz-adv-x="1705" d="M108 827q0 192 94 365q114 209 297 215q73 3 139 -35q138 -81 138 -301q0 -194 -102 -369q-118 -202 -298 -202q-79 0 -147 46q-121 83 -121 281zM305 760q0 -109 73 -109q59 0 109 101q94 197 94 381q0 124 -76 124q-44 0 -80 -51q-120 -167 -120 -446zM311 0l946 1389 h176l-944 -1389h-178zM970 309q0 192 94 364q114 208 297 214q73 3 140 -35q137 -81 137 -299q0 -195 -102 -370q-118 -203 -298 -203q-78 0 -146 45q-122 83 -122 284zM1167 242q0 -111 74 -111q61 0 108 102q94 197 94 381q0 123 -75 123q-44 0 -80 -49 q-121 -167 -121 -446z" />
<glyph unicode="$" horiz-adv-x="1449" d="M36 362q0 207 171 350q94 79 292 165q-43 146 -43 208q0 154 120 264q119 109 285 109q153 0 250 -87q94 -84 94 -214q0 -221 -354 -379q48 -122 125 -278q92 108 150 223l231 -94q-108 -207 -248 -361q66 -57 129 -57q20 0 82 14l-51 -225l-152 -6q-134 0 -229 92 q-186 -115 -399 -115q-157 0 -260 58q-193 104 -193 333zM351 393q0 -62 34 -109q50 -69 157 -69q98 0 215 82q-87 169 -170 365q-236 -111 -236 -269zM736 1133q0 -24 33 -150q182 82 182 168q0 40 -29 67q-30 27 -73 27q-45 0 -77 -28q-36 -32 -36 -84z" />
<glyph unicode="%" horiz-adv-x="512" d="M110 756l35 149q121 73 174 211h-121l74 330h327l-53 -227q-26 -107 -57 -168q-99 -206 -379 -295z" />
<glyph unicode="&#x26;" horiz-adv-x="894" d="M188 479q0 364 262 670q176 202 533 393l104 -127q-312 -243 -434 -461q-146 -256 -146 -548q0 -312 187 -609l-133 -119q-167 175 -240 300q-133 228 -133 501z" />
<glyph unicode="'" horiz-adv-x="894" d="M-186 -190q310 241 434 460q146 260 146 549q0 311 -187 608l133 119q373 -383 373 -801q0 -365 -262 -669q-183 -208 -533 -391z" />
<glyph unicode="(" horiz-adv-x="724" d="M165 1212l76 152l127 -64l71 -71l-6 92l33 139l164 -20l-31 -150l-41 -78l88 37l150 19l8 -170l-143 -17l-93 17l68 -92l51 -140l-157 -59l-50 119l-14 110l-53 -86l-119 -102l-115 119l115 104l96 57l-96 19z" />
<glyph unicode=")" d="M100 467v260h469v467h260v-467h465v-260h-465v-467h-260v467h-469z" />
<glyph unicode="*" horiz-adv-x="512" d="M-131 -360l35 149q120 73 174 211h-123l76 332h325l-51 -228q-17 -81 -57 -167q-99 -209 -379 -297z" />
<glyph unicode="+" horiz-adv-x="724" d="M67 524l59 260h555l-59 -260h-555z" />
<glyph unicode="," horiz-adv-x="512" d="M-40 0l76 338h323l-75 -338h-324z" />
<glyph unicode="-" horiz-adv-x="937" d="M-143 0l985 1446h291l-983 -1446h-293z" />
<glyph unicode="." horiz-adv-x="1150" d="M61 487q0 470 264 758q164 178 369 178q202 -3 325 -149q109 -130 109 -371q0 -412 -221 -702q-175 -230 -416 -230q-128 0 -229 68q-201 133 -201 448zM376 381q0 -168 117 -168q92 0 176 166q146 288 146 596q0 209 -121 207q-102 -3 -191 -207q-127 -305 -127 -594z " />
<glyph unicode="/" horiz-adv-x="1150" d="M241 977l49 223q174 4 252 37q95 38 176 149h248l-313 -1386h-330l229 1012q-157 -37 -311 -35z" />
<glyph unicode="0" horiz-adv-x="1150" d="M-22 0l49 217l596 490q193 161 193 290q0 77 -47 127q-46 47 -115 47q-91 0 -144 -80q-49 -73 -49 -182l2 -61l-305 37q8 107 21 162q36 155 151 257q135 119 336 119q210 0 341 -120q128 -117 128 -295q0 -241 -319 -494l-353 -254h572l-60 -260h-997z" />
<glyph unicode="1" horiz-adv-x="1150" d="M-32 408l2 51l334 37q-10 -45 -10 -82q0 -79 49 -134q53 -59 137 -59q102 0 156 79q43 62 43 142q0 107 -84 146q-38 19 -129 14l45 213q49 -8 75 -8q112 0 169 89q40 64 40 138q0 150 -145 150q-68 0 -121 -43q-55 -49 -76 -180l-315 34q8 74 18 109q38 126 170 218 q144 101 326 101q214 0 347 -116q126 -110 126 -273q0 -102 -57 -182q-59 -85 -217 -139q180 -100 180 -289q0 -181 -153 -313q-161 -140 -402 -140q-254 0 -387 133q-121 121 -121 304z" />
<glyph unicode="2" horiz-adv-x="1150" d="M-18 340l61 262l705 787h379l-184 -818h202l-53 -231h-203l-78 -340h-323l78 340h-584zM291 571h330l125 514z" />
<glyph unicode="3" horiz-adv-x="1150" d="M20 434l328 17q-4 -89 12 -127q34 -97 135 -97q91 0 158 91q69 92 69 221q0 104 -53 157q-45 45 -110 45q-95 0 -185 -125l-278 50l176 723h825l-59 -256h-547l-61 -240q118 72 227 72q174 0 284 -100q123 -111 123 -312q0 -218 -155 -391q-171 -191 -426 -191 q-145 0 -258 66q-127 74 -172 192q-26 69 -33 205z" />
<glyph unicode="4" horiz-adv-x="1150" d="M96 530q0 183 70 385q175 508 600 508q129 0 221 -59q127 -81 174 -309l-307 -43q-25 164 -137 164q-119 0 -197 -156q-46 -90 -74 -215q112 137 262 137q138 0 241 -97q120 -112 120 -300q0 -193 -125 -366q-152 -210 -399 -210q-180 0 -305 132q-144 153 -144 429z M424 414q0 -76 30 -131q35 -64 95 -64q77 0 135 99q53 92 53 198q0 78 -30 131q-35 60 -97 60q-76 0 -133 -99q-53 -92 -53 -194z" />
<glyph unicode="5" horiz-adv-x="1150" d="M90 0q82 294 213 518q146 244 469 610h-662l58 261h1020l-56 -246q-290 -311 -454 -602q-150 -262 -219 -541h-369z" />
<glyph unicode="6" horiz-adv-x="1150" d="M63 383q0 117 57 211q72 121 271 170q-162 86 -162 262q0 166 134 281q132 114 321 114q192 0 309 -101q117 -100 117 -263q0 -101 -54 -189q-54 -82 -200 -135q208 -97 208 -303q0 -179 -127 -309q-147 -152 -401 -152q-196 0 -330 109q-143 116 -143 305zM389 358 q0 -80 49 -128q44 -42 106 -42q84 0 135 73q46 66 46 155q0 86 -51 136q-45 44 -109 42q-91 -1 -140 -90q-36 -67 -36 -146zM532 991q0 -80 40 -123q33 -37 79 -37q66 0 108 71q37 63 37 142q0 76 -37 121q-35 42 -88 39q-62 -4 -102 -70q-37 -62 -37 -143z" />
<glyph unicode="7" horiz-adv-x="1150" d="M28 338l307 43q25 -164 137 -164q121 0 199 156q46 89 74 215q-119 -137 -262 -137q-139 0 -243 97q-120 112 -120 300q0 194 125 366q151 209 399 209q181 0 306 -131q145 -153 145 -430q0 -192 -70 -385q-175 -508 -602 -508q-129 0 -221 60q-127 81 -174 309zM452 877 q0 -78 30 -131q35 -60 97 -60q77 0 135 98q53 91 53 195q0 76 -30 131q-35 64 -97 64q-76 0 -134 -99q-54 -93 -54 -198z" />
<glyph unicode="8" horiz-adv-x="598" d="M40 0l76 338h323l-73 -338h-326zM206 731l72 324h323l-72 -324h-323z" />
<glyph unicode="9" horiz-adv-x="598" d="M-45 -360l35 149q123 78 174 211h-123l76 332h325l-51 -228q-18 -86 -59 -167q-97 -209 -377 -297zM213 727l76 328h319l-73 -328h-322z" />
<glyph unicode=":" d="M34 592v254l1366 606v-285l-1001 -448l1001 -440v-285z" />
<glyph unicode=";" d="M14 254v260h1366v-260h-1366zM14 682v258h1366v-258h-1366z" />
<glyph unicode="&#x3c;" d="M14 -6v285l1001 440l-1001 448v285l1366 -606v-254z" />
<glyph unicode="=" horiz-adv-x="1150" d="M151 1063q49 131 88 188q149 215 483 215q211 0 348 -93q150 -101 150 -275q0 -235 -252 -357l-99 -45q-62 -27 -97 -47q-98 -51 -150 -147h-287q11 72 49 135q47 74 351 262q135 83 135 168q0 49 -35 87q-46 50 -133 50q-178 0 -234 -215zM208 0l76 324h324l-72 -324 h-328z" />
<glyph unicode="&#x3e;" horiz-adv-x="1835" d="M155 487q0 395 269 680q275 291 673 291q281 0 448 -170q162 -164 162 -428q0 -280 -147 -501q-148 -224 -340 -224q-155 0 -184 139q-116 -139 -258 -139q-123 0 -200 86q-85 94 -85 262q0 223 125 400q132 188 319 188q131 0 217 -123l19 80h186l-69 -323 q-56 -293 -56 -334q0 -62 39 -62q75 0 164 162q98 178 98 381q0 228 -147 346q-123 98 -309 98q-298 0 -525 -238q-231 -242 -231 -573q0 -305 217 -458q167 -119 403 -119q292 0 545 190q77 62 121 109l96 -125q-353 -336 -751 -336q-297 0 -516 153q-283 198 -283 588z M706 494q0 -177 129 -177q83 0 158 99q98 132 94 299q-3 172 -139 172q-105 0 -177 -135q-65 -121 -65 -258z" />
<glyph unicode="?" horiz-adv-x="1449" d="M-141 0l883 1446h405l154 -1446h-352l-19 287h-532l-160 -287h-379zM545 549h369l-39 594z" />
<glyph unicode="@" horiz-adv-x="1449" d="M-2 0l328 1446h651q144 0 231 -41q183 -86 183 -301q0 -121 -66 -207q-69 -93 -231 -135q118 -54 165 -102q80 -81 80 -224q0 -181 -141 -309q-140 -127 -395 -127h-805zM410 266h313q151 4 205 76q37 50 37 123q0 37 -13 67q-35 73 -163 82h-302zM547 877h268 q223 12 223 176q0 125 -159 131h-260z" />
<glyph unicode="A" horiz-adv-x="1492" d="M110 633q0 324 193 568q222 282 593 282q309 0 488 -187q73 -74 127 -223l-346 -78q-74 207 -260 207q-181 0 -301 -182q-111 -167 -111 -383q0 -189 90 -290q76 -85 184 -85q91 0 177 62q88 63 167 223l302 -168q-34 -57 -43 -72q-217 -344 -609 -344q-258 0 -437 151 q-214 180 -214 519z" />
<glyph unicode="B" horiz-adv-x="1536" d="M2 0l328 1446h540q158 0 283 -41q332 -112 332 -531q0 -439 -283 -688q-210 -186 -723 -186h-477zM418 279h157q204 4 291 57q95 55 167 189q83 158 83 347q0 160 -88 234q-70 59 -231 63h-179z" />
<glyph unicode="C" d="M0 0l330 1446h1040l-63 -279h-686l-64 -278h662l-60 -266h-661l-80 -349h788l-59 -274h-1147z" />
<glyph unicode="D" horiz-adv-x="1280" d="M0 0l330 1446h1042l-59 -270h-686l-72 -316h662l-64 -276h-661l-134 -584h-358z" />
<glyph unicode="E" horiz-adv-x="1662" d="M108 616q0 323 187 571q225 298 622 298q331 0 510 -195q75 -83 111 -211l-345 -90q-33 125 -122 174q-67 37 -154 37q-200 0 -320 -194q-104 -168 -104 -385q0 -245 152 -340q72 -45 168 -45q111 0 192 57q91 64 139 213h-303l64 276h633l-177 -784h-321l26 123 q-164 -160 -362 -160q-234 0 -398 147q-198 178 -198 508z" />
<glyph unicode="F" horiz-adv-x="1536" d="M0 0l330 1446h358l-119 -526h537l119 526h360l-328 -1446h-360l145 641h-538l-146 -641h-358z" />
<glyph unicode="G" horiz-adv-x="641" d="M4 0l324 1446h360l-324 -1446h-360z" />
<glyph unicode="H" horiz-adv-x="811" d="M-114 0l68 301h90q115 3 159 33q55 37 84 155l215 957h359l-253 -1120l-11 -41q-59 -201 -242 -260q-61 -21 -193 -25h-276z" />
<glyph unicode="I" horiz-adv-x="1492" d="M-2 0l326 1446h342l-133 -594l630 594h430l-632 -578l417 -868h-379l-294 641l-277 -252l-86 -389h-344z" />
<glyph unicode="J" horiz-adv-x="1150" d="M2 0l326 1446h358l-260 -1153h610l-67 -293h-967z" />
<glyph unicode="K" horiz-adv-x="1835" d="M4 0l324 1446h534l25 -948l448 948h545l-326 -1446h-336l256 1118l-538 -1118h-305l-41 1135l-246 -1135h-340z" />
<glyph unicode="L" horiz-adv-x="1449" d="M0 0l330 1446h356l289 -932l196 932h330l-330 -1446h-352l-284 928l-205 -928h-330z" />
<glyph unicode="M" horiz-adv-x="1622" d="M98 592q0 310 182 566q231 327 649 327q274 0 449 -148q197 -166 197 -469q0 -244 -115 -458q-129 -245 -342 -359q-166 -86 -377 -86q-327 0 -500 189q-143 157 -143 438zM463 580q0 -163 92 -251q81 -77 207 -77q223 0 352 233q100 182 100 381q0 201 -139 281 q-77 44 -167 44q-11 0 -22 -1q-231 -11 -346 -265q-77 -171 -77 -345z" />
<glyph unicode="N" horiz-adv-x="1409" d="M0 0l324 1446h622q284 -11 400 -162q79 -105 79 -270q0 -350 -317 -488q-106 -43 -326 -51h-317l-109 -475h-356zM526 737h256q118 5 176 49q105 76 105 213q0 189 -246 189h-188z" />
<glyph unicode="O" horiz-adv-x="1662" d="M98 592q0 310 182 566q231 327 649 327q276 0 451 -150q195 -166 195 -467q0 -277 -172 -555q153 -97 274 -106l-131 -266q-157 12 -346 159q-213 -135 -461 -135q-326 0 -498 189q-143 157 -143 438zM463 580q0 -163 92 -251q81 -77 207 -77q223 0 352 233 q100 182 100 381q0 201 -139 281q-77 44 -167 44q-11 0 -22 -1q-231 -11 -346 -265q-77 -171 -77 -345z" />
<glyph unicode="P" horiz-adv-x="1449" d="M0 0l328 1446h637q115 0 184 -19q293 -74 293 -401q0 -167 -86 -283q-71 -100 -279 -172l236 -571h-393l-191 516h-254l-117 -516h-358zM539 784h282q114 0 168 37q96 63 96 195q0 164 -213 164h-243z" />
<glyph unicode="Q" d="M-32 297l317 199q44 -127 152 -189q88 -55 209 -55q114 0 184 51q64 48 64 115q0 81 -142 139q-48 19 -133 48q-97 33 -133 46q-313 126 -313 373q0 131 90 252q158 207 518 207q94 0 186 -19q243 -51 404 -284l-299 -174q-27 75 -68 114q-93 88 -264 88q-112 0 -168 -57 q-37 -38 -37 -78q0 -82 187 -145q285 -96 385 -167q161 -114 161 -310q0 -198 -155 -334q-175 -154 -477 -154q-228 0 -406 86q-154 74 -262 248z" />
<glyph unicode="R" horiz-adv-x="1280" d="M194 1165l70 281h1134l-71 -281h-375l-262 -1165h-363l262 1165h-395z" />
<glyph unicode="S" horiz-adv-x="1492" d="M120 416q0 67 31 225l180 807h362l-196 -883q-15 -64 -15 -108q0 -100 83 -147q59 -34 133 -34q124 0 192 87q45 57 84 192l209 893h360l-213 -950q-53 -228 -141 -330q-172 -199 -504 -199q-223 0 -374 93q-191 117 -191 354z" />
<glyph unicode="T" d="M188 1446h358l97 -1057l526 1057h379l-764 -1446h-420z" />
<glyph unicode="U" horiz-adv-x="2004" d="M202 1446h348v-1040l463 1040h344l-16 -1047l485 1047h352l-721 -1446h-409l24 934l-415 -934h-410z" />
<glyph unicode="V" horiz-adv-x="1449" d="M-145 0l700 782l-329 664h387l192 -412l361 412h424l-631 -705l362 -741h-381l-229 483l-414 -483h-442z" />
<glyph unicode="W" d="M198 1446h358l201 -520l379 520h408l-682 -836l-138 -610h-358l145 655z" />
<glyph unicode="X" d="M-36 0l68 297l884 866h-696l66 283h1144l-69 -299l-887 -866h747l-63 -281h-1194z" />
<glyph unicode="Y" horiz-adv-x="811" d="M38 -223l381 1679h559l-39 -166h-254l-307 -1347h256l-37 -166h-559z" />
<glyph unicode="Z" horiz-adv-x="937" d="M190 1446h293l313 -1446h-289z" />
<glyph unicode="[" horiz-adv-x="811" d="M-169 -225l37 166h254l309 1347h-256l37 160h559l-383 -1673h-557z" />
<glyph unicode="\" horiz-adv-x="1492" d="M329 637l416 809h213l397 -809h-283l-225 473l-237 -473h-281z" />
<glyph unicode="]" horiz-adv-x="1024" d="M-20 -154h1065v-102h-1065v102z" />
<glyph unicode="^" horiz-adv-x="512" d="M137 776l51 228q18 81 58 167q92 202 378 297l-34 -149q-122 -76 -174 -213h122l-75 -330h-326z" />
<glyph unicode="_" horiz-adv-x="1236" d="M20 266q0 107 61 195q85 119 269 163q117 27 446 46q21 73 21 110q0 109 -146 109q-144 0 -188 -150l-316 11q55 171 152 243q128 97 387 97q422 0 422 -291q0 -68 -21 -150l-122 -553q-9 -33 -9 -51q0 -12 9 -45h-306q-10 41 -10 47t9 47q9 44 10 53q-38 -69 -95 -106 q-105 -72 -254 -72q-197 0 -276 135q-43 73 -43 162zM337 303q0 -108 132 -108q81 0 147 45q92 65 133 233q-290 -5 -375 -86q-37 -37 -37 -84z" />
<glyph unicode="`" horiz-adv-x="1280" d="M-6 0l324 1446h321l-106 -463q163 102 280 102q201 0 299 -160q74 -120 74 -286q0 -238 -145 -441q-165 -229 -410 -229q-114 0 -203 49q-59 35 -94 99l-29 -117h-311zM410 424q0 -107 63 -164q50 -45 115 -45q121 0 202 141q74 129 74 291q0 129 -83 178q-50 30 -97 25 q-125 -7 -206 -163q-68 -131 -68 -263z" />
<glyph unicode="a" horiz-adv-x="1150" d="M55 471q0 227 153 408q177 211 468 211q158 0 282 -76q128 -79 201 -283l-283 -63q-48 174 -207 174q-135 0 -218 -138q-70 -115 -70 -245q0 -236 215 -236q138 0 217 174l286 -88q-114 -211 -270 -284q-119 -56 -252 -56q-227 0 -374 139q-148 140 -148 363z" />
<glyph unicode="b" horiz-adv-x="1280" d="M59 414q0 269 155 467q163 209 406 209q195 0 297 -144l113 500h317l-327 -1446h-316l17 76q-147 -105 -287 -105q-155 0 -259 110q-116 122 -116 333zM376 422q0 -211 175 -211q147 0 228 159q62 123 62 263q0 117 -69 172q-47 37 -106 37h-11q-117 -6 -198 -130 q-81 -123 -81 -290z" />
<glyph unicode="c" horiz-adv-x="1236" d="M59 477q0 221 142 400q169 215 456 215q205 0 336 -111q151 -128 151 -371q0 -45 -8 -139h-768q0 -126 35 -176q58 -82 170 -82q167 0 258 158l264 -95q-82 -133 -162 -195q-141 -112 -358 -112q-257 0 -397 164q-119 139 -119 344zM411 670h451q0 121 -90 172 q-51 28 -111 28q-160 0 -250 -200z" />
<glyph unicode="d" horiz-adv-x="681" d="M36 0l193 870h-146l43 191h150q37 197 94 281q96 143 307 143q82 0 209 -31l-45 -209h-90q-73 -2 -99 -25q-40 -36 -61 -159h188l-45 -191h-186l-197 -870h-315z" />
<glyph unicode="e" horiz-adv-x="1280" d="M-59 -92q0 33 12 94h328q-10 -51 -10 -61q0 -74 77 -107q48 -20 107 -20q134 0 198 101q43 68 72 226q-133 -104 -264 -104q-148 0 -255 85q-144 114 -144 349q0 227 141 412q160 211 410 211q188 0 299 -138l24 99h305l-204 -901q-60 -260 -119 -344 q-140 -207 -492 -207q-214 0 -348 82q-137 85 -137 223zM373 467q0 -97 50 -153q52 -58 143 -58q142 0 217 158q55 115 55 237q0 115 -74 169q-50 36 -111 36h-12q-136 -7 -213 -169q-55 -117 -55 -220z" />
<glyph unicode="f" horiz-adv-x="1236" d="M2 0l330 1446h317l-117 -516q150 149 306 149q122 0 203 -68q89 -74 89 -204q0 -43 -16 -121l-160 -686h-315l127 561q27 109 27 148q0 129 -123 129q-84 0 -146 -80q-31 -38 -69 -166l-136 -592h-317z" />
<glyph unicode="g" horiz-adv-x="598" d="M2 0l240 1055h317l-240 -1055h-317zM276 1206l56 240h315l-53 -240h-318z" />
<glyph unicode="h" horiz-adv-x="641" d="M-245 -365l59 254l82 -2q123 0 150 121l239 1047h318l-238 -1032q-49 -215 -139 -299q-99 -93 -307 -93q-70 0 -164 4zM320 1206l56 240h317l-55 -240h-318z" />
<glyph unicode="i" horiz-adv-x="1193" d="M2 0l328 1446h313l-164 -731l393 340h418l-479 -398l287 -657h-340l-193 463l-178 -148l-70 -315h-315z" />
<glyph unicode="j" horiz-adv-x="598" d="M4 0l322 1446h317l-324 -1446h-315z" />
<glyph unicode="k" horiz-adv-x="1878" d="M2 0l242 1055h319l-33 -150q142 180 330 180q196 0 272 -167q135 167 322 167q111 0 196 -58q109 -77 109 -222q0 -58 -31 -203l-133 -602h-317l135 592q25 108 25 135q0 115 -123 115q-88 0 -150 -74q-36 -43 -63 -160l-144 -608h-317l143 627q19 83 19 106 q0 111 -121 111q-92 0 -156 -82q-41 -59 -57 -127l-148 -635h-319z" />
<glyph unicode="l" horiz-adv-x="1236" d="M4 0l240 1055h317l-31 -127q143 153 308 153q125 0 205 -69q85 -75 85 -205q0 -26 -14 -117l-158 -690h-315l137 621q12 69 12 98q0 119 -118 119q-70 0 -127 -58q-62 -61 -97 -219l-129 -561h-315z" />
<glyph unicode="m" horiz-adv-x="1280" d="M59 475q0 227 155 408q178 209 463 209q247 0 387 -152q125 -136 125 -342q0 -244 -162 -427q-178 -202 -458 -202q-276 0 -411 186q-99 136 -99 320zM378 463q0 -102 47 -167q55 -77 162 -77q141 0 218 139q61 110 61 244q0 96 -35 152q-59 90 -168 90h-12 q-128 -6 -205 -135q-68 -111 -68 -246z" />
<glyph unicode="n" horiz-adv-x="1280" d="M-83 -385l328 1440h282l-22 -105q120 133 280 133q162 0 273 -100q137 -125 137 -367q0 -241 -140 -430q-158 -215 -409 -215q-192 0 -301 140l-113 -496h-315zM413 424q0 -120 68 -180q53 -45 128 -45q128 0 207 146q66 121 66 257q0 256 -188 256h-3q-106 0 -180 -94 q-98 -130 -98 -340z" />
<glyph unicode="o" horiz-adv-x="1280" d="M63 399q0 253 143 457q163 231 418 231q190 0 299 -143l27 111h309l-326 -1442h-317l100 453q-136 -97 -278 -97q-159 0 -265 117q-110 121 -110 313zM382 424q0 -92 29 -139q48 -78 148 -78q139 0 222 154q66 125 66 266q0 129 -81 183q-47 30 -96 30h-9 q-89 -4 -158 -76q-121 -121 -121 -340z" />
<glyph unicode="p" horiz-adv-x="811" d="M6 0l240 1055h313l-33 -154q46 51 55 60q115 110 263 110l57 -2l-64 -276q-192 -9 -272 -66q-85 -60 -135 -250l-109 -477h-315z" />
<glyph unicode="q" horiz-adv-x="1110" d="M-45 246l266 131q20 -39 37 -62q76 -94 232 -94q174 0 174 92q0 61 -107 93q-211 65 -270 94q-182 85 -182 258q0 124 103 217q128 117 365 117q210 0 343 -88q92 -61 151 -170l-238 -117q-101 141 -260 141q-135 0 -135 -82q0 -56 137 -92q216 -61 302 -119 q122 -82 122 -223q0 -152 -135 -258q-147 -117 -391 -117q-344 0 -514 279z" />
<glyph unicode="r" horiz-adv-x="724" d="M65 870l43 191h141l68 293h317l-65 -293h182l-43 -191h-182l-101 -440q-14 -72 -14 -90q0 -90 119 -94h61l-55 -244q-119 -16 -182 -16q-90 0 -150 24q-131 51 -131 207q0 27 15 113l120 540h-143z" />
<glyph unicode="s" horiz-adv-x="1236" d="M73 250q0 38 18 135l150 670h317l-139 -621q-8 -45 -8 -69q0 -127 119 -127q47 0 90 22q85 48 129 219l129 576h315l-237 -1055h-316l31 139q-137 -147 -305 -147q-121 0 -204 67q-89 73 -89 191z" />
<glyph unicode="t" horiz-adv-x="1067" d="M98 1055h315l43 -721l359 721h352l-616 -1055h-328z" />
<glyph unicode="u" horiz-adv-x="1622" d="M106 1055h291l16 -688l334 688h295l16 -688l324 688h334l-580 -1055h-313l-10 647l-324 -647h-315z" />
<glyph unicode="v" horiz-adv-x="1067" d="M-137 0l494 557l-207 498h331l99 -271l217 271h362l-465 -518l234 -537h-332l-115 319l-264 -319h-354z" />
<glyph unicode="w" horiz-adv-x="1024" d="M-139 -371l55 256q86 -14 111 -14q101 0 162 78l-109 1106h320l32 -740l371 740h350l-688 -1172q-90 -142 -161 -191q-101 -71 -285 -71q-52 0 -158 8z" />
<glyph unicode="x" horiz-adv-x="1067" d="M-61 0l51 233l643 596h-510l52 226h915l-51 -226l-639 -596h530l-53 -233h-938z" />
<glyph unicode="y" horiz-adv-x="724" d="M124 557v109q106 23 140 126q20 61 20 203v115q0 256 73 336q88 96 422 96v-110q-94 -21 -133 -50q-60 -42 -77 -112q-11 -46 -13 -183v-10q-2 -252 -24 -311q-42 -114 -191 -156q144 -39 189 -145q26 -60 28 -299v-33q0 -139 17 -188q34 -107 204 -156v-111 q-338 0 -426 103q-67 76 -67 301v123q-3 153 -10 190q-35 127 -152 162z" />
<glyph unicode="z" horiz-adv-x="468" d="M129 -512v2048h260v-2048h-260z" />
<glyph unicode="{" horiz-adv-x="724" d="M157 -211q94 21 133 49q60 42 77 113q11 46 13 182v10q3 253 25 312q41 114 190 155q-143 39 -188 146q-26 60 -29 299v32q0 140 -16 189q-34 107 -205 156v110q338 0 426 -102q68 -76 68 -301v-123q2 -154 10 -191q34 -127 151 -161v-109q-106 -23 -139 -126 q-20 -61 -20 -204v-114q0 -256 -74 -336q-88 -97 -422 -97v111z" />
<glyph unicode="|" horiz-adv-x="1492" d="M307 614q141 195 319 195q78 0 211 -61l74 -35q110 -47 156 -47q94 0 205 127l106 -215q-158 -170 -319 -170q-73 0 -215 63l-62 31q-96 45 -149 45q-89 0 -213 -144z" />
<glyph unicode="}" horiz-adv-x="598" d="M-47 0l102 449l209 499h133l-18 -499l-102 -449h-324zM209 1120l76 326h323l-73 -326h-326z" />
<glyph unicode="~" horiz-adv-x="1150" d="M55 471q0 243 168 427q191 208 491 189l46 158l114 -4l-47 -172q156 -46 237 -149q47 -59 95 -189l-283 -63q-31 117 -119 155l-165 -600q141 0 221 174l286 -88q-75 -144 -161 -215q-150 -125 -363 -125q-24 0 -53 2l-57 -204l-119 4l61 223q-159 45 -254 170 q-98 132 -98 307zM381 461q0 -152 100 -209l164 590q-134 -18 -208 -161q-56 -108 -56 -220z" />
<glyph unicode="&#xa0;" horiz-adv-x="811" d="M143 1397q0 64 49 103q43 34 103 34q58 0 97 -33q42 -35 42 -94l-2 -37l-109 -534h-65l-111 512q-4 36 -4 49zM569 1397q0 65 49 103q44 34 105 34q56 0 95 -33q42 -35 42 -94q0 -25 -2 -37l-109 -534h-63l-113 512q-4 36 -4 49z" />
<glyph unicode="&#xa1;" horiz-adv-x="1536" d="M-4 219q0 102 73 171q84 79 234 79q74 0 209 -33q-8 120 -43 219h-303l41 179h190q-22 117 -22 159q0 122 68 229q136 210 481 210q225 0 354 -101q95 -72 154 -260l-297 -115q-14 66 -23 84q-57 131 -205 131q-87 0 -142 -61q-54 -59 -54 -145q0 -41 24 -131h336 l-41 -179h-227q31 -114 31 -157q0 -62 -43 -166q110 -78 178 -78q130 0 157 221h306q-45 -284 -140 -389q-104 -111 -262 -111q-138 0 -381 160q-197 -162 -370 -162q-142 0 -218 79q-65 68 -65 167zM209 211q0 -72 86 -72q98 0 176 109q-98 45 -151 45q-54 0 -85 -28 q-26 -24 -26 -54z" />
<glyph unicode="&#xa2;" horiz-adv-x="256" d="M-442 0l987 1446h156l-989 -1446h-154z" />
<glyph unicode="&#xa3;" d="M122 362l51 211h324l16 70l-24 57h-287l49 211h154l-207 510h358l199 -510h4l377 510h407l-422 -510h146l-53 -211h-267l-84 -100l-8 -27h334l-53 -211h-328l-84 -362h-358l82 362h-326z" />
<glyph unicode="&#xa4;" horiz-adv-x="681" d="M-266 -369l47 209q148 0 180 19q43 26 72 164l174 790h-145l43 193h147q41 200 98 282q96 139 308 139q72 0 206 -30l-47 -209q-149 0 -183 -23q-41 -27 -64 -159h188l-45 -193h-188l-168 -754q-51 -207 -74 -258q-84 -200 -340 -200q-91 0 -209 30z" />
<glyph unicode="&#xa5;" horiz-adv-x="1280" d="M10 -70l190 187q170 -137 326 -137q139 0 139 86q0 54 -75 96q-22 13 -195 96q-148 74 -210 130q-112 101 -112 241q0 115 76 211q70 85 223 145q-49 94 -49 162q0 124 101 221q119 111 340 111q250 0 491 -191l-188 -176q-193 141 -322 141q-110 0 -110 -77 q0 -59 161 -136q202 -97 293 -185q115 -111 115 -253q0 -113 -72 -211q-58 -78 -204 -147q47 -106 47 -166q0 -129 -114 -227q-130 -113 -349 -113q-274 0 -502 192zM342 709q0 -91 200 -197q105 -53 259 -143q76 34 108 73q33 44 33 95q0 103 -199 202q-133 66 -252 135 q-149 -74 -149 -165z" />
<glyph unicode="&#xa6;" d="M26 219l168 166q-88 143 -88 309q0 164 86 310l-162 163l193 195l163 -164q151 88 312 88q156 0 309 -88l164 164l196 -195l-167 -163q88 -147 88 -310q0 -162 -88 -311l165 -168l-196 -195l-164 168q-154 -86 -307 -86q-161 0 -312 88l-165 -165zM362 694 q0 -154 107 -250q98 -88 231 -88q138 0 233 95q97 96 99 243q1 151 -104 248q-98 90 -230 90q-133 0 -230 -87q-106 -97 -106 -251z" />
<glyph unicode="&#xa7;" horiz-adv-x="425" d="M163 1397q0 65 49 103q44 34 105 34q58 0 96 -33q41 -35 41 -94q0 -25 -2 -37l-109 -534h-63l-113 512q-4 36 -4 49z" />
<glyph unicode="&#xa8;" horiz-adv-x="980" d="M135 772l51 227q16 74 60 168q94 203 376 297l-34 -149q-122 -76 -172 -213h120l-75 -330h-326zM608 772l53 227q24 96 58 168q93 202 379 297l-35 -149q-122 -76 -174 -213h123l-76 -330h-328z" />
<glyph unicode="&#xa9;" horiz-adv-x="854" d="M57 502l74 323l360 234l-65 -285l-211 -139l145 -143l-57 -252zM432 496l74 329l362 232l-68 -291l-213 -133l148 -148l-57 -249z" />
<glyph unicode="&#xaa;" horiz-adv-x="468" d="M51 496l76 329l360 232l-65 -291l-213 -133l147 -148l-57 -249z" />
<glyph unicode="&#xab;" horiz-adv-x="468" d="M-4 233l63 287l211 137l-147 144l59 252l244 -260l-72 -324z" />
<glyph unicode="&#xac;" horiz-adv-x="1280" d="M36 0l193 870h-146l43 191h150q37 196 94 281q97 143 307 143q82 0 209 -31l-45 -209h-90q-72 -2 -99 -25q-40 -36 -61 -159h188l-45 -191h-186l-197 -870h-315zM683 0l240 1055h317l-237 -1055h-320zM958 1206l55 240h315l-53 -240h-317z" />
<glyph unicode="&#xad;" horiz-adv-x="937" d="M-143 0l985 1446h291l-983 -1446h-293z" />
<glyph unicode="&#xae;" horiz-adv-x="1280" d="M36 0l193 870h-146l43 191h150q37 196 94 281q97 143 307 143q82 0 209 -31l-45 -209h-90q-72 -2 -99 -25q-40 -36 -61 -159h188l-45 -191h-186l-197 -870h-315zM685 0l324 1448h315l-323 -1448h-316z" />
<glyph unicode="&#xaf;" horiz-adv-x="1150" d="M69 524l61 262h979l-61 -262h-979z" />
<glyph unicode="&#xb0;" horiz-adv-x="980" d="M49 784l61 277h328l88 391h318l-88 -391h327l-65 -277h-326l-227 -1005h-318l228 1005h-326z" />
<glyph unicode="&#xb1;" horiz-adv-x="980" d="M-71 236l57 276h330l59 266h-323l61 281h326l88 387h317l-88 -389h328l-65 -279h-326l-59 -266h323l-59 -276h-328l-104 -461h-318l105 461h-324z" />
<glyph unicode="&#xb2;" horiz-adv-x="512" d="M69 487l76 338h323l-75 -338h-324z" />
<glyph unicode="&#xb3;" d="M264 1006q0 207 135 329q114 106 328 111h512v-160h-74v-1628h-172v1628h-242v-1628h-172v940q-114 35 -170 78q-145 115 -145 330z" />
<glyph unicode="&#xb4;" horiz-adv-x="681" d="M49 721q0 132 93 225q92 92 224 92q133 0 225 -92q93 -93 93 -225t-93 -225q-92 -93 -225 -93q-132 0 -224 93q-93 93 -93 225z" />
<glyph unicode="&#xb5;" horiz-adv-x="512" d="M-131 -360l35 149q121 73 174 211h-123l76 332h325l-51 -230q-16 -77 -57 -165q-95 -207 -379 -297z" />
<glyph unicode="&#xb6;" horiz-adv-x="980" d="M-131 -360l35 149q121 73 174 211h-123l76 332h325l-51 -230q-16 -77 -57 -165q-95 -207 -379 -297zM332 -360l35 149q121 73 174 211h-121l74 332h327l-53 -230q-23 -90 -57 -165q-94 -207 -379 -297z" />
<glyph unicode="&#xb7;" horiz-adv-x="980" d="M116 756l35 149q121 73 174 211h-123l76 330h325l-51 -227q-20 -94 -57 -168q-99 -206 -379 -295zM593 756l35 149q121 73 174 211h-121l74 330h328l-54 -227q-18 -84 -57 -168q-99 -206 -379 -295z" />
<glyph unicode="&#xb8;" horiz-adv-x="854" d="M-4 236l68 290l208 131l-145 150l57 248l248 -260l-74 -328zM375 233l63 287l211 137l-147 144l59 252l244 -260l-72 -324z" />
<glyph unicode="&#xb9;" horiz-adv-x="2048" d="M61 0l76 338h323l-75 -338h-324zM718 0l76 338h324l-76 -338h-324zM1376 0l76 338h323l-76 -338h-323z" />
<glyph unicode="&#xba;" horiz-adv-x="2433" d="M108 827q0 193 94 366q114 208 297 214q73 3 139 -35q138 -81 138 -299q0 -196 -102 -370q-118 -203 -298 -203q-79 0 -147 46q-121 83 -121 281zM305 762q0 -111 73 -111q59 0 109 101q94 201 94 383q0 122 -76 122q-43 0 -80 -49q-120 -172 -120 -446zM313 2l944 1387 h176l-944 -1387h-176zM970 307q0 193 94 366q114 208 297 214q73 3 140 -35q137 -81 137 -299q0 -195 -102 -370q-118 -203 -298 -203q-78 0 -146 45q-122 82 -122 282zM1167 242q0 -111 74 -111q58 0 108 100q94 202 94 383q0 123 -75 123q-44 0 -80 -49 q-121 -172 -121 -446zM1695 307q0 193 94 366q114 208 297 214q73 3 140 -35q137 -81 137 -299q0 -195 -102 -370q-118 -203 -298 -203q-78 0 -146 45q-122 82 -122 282zM1892 242q0 -111 74 -111q58 0 108 100q94 202 94 383q0 123 -75 123q-44 0 -80 -49 q-121 -172 -121 -446z" />
<glyph unicode="&#xbb;" horiz-adv-x="1150" d="M-10 348q0 235 252 357l99 45q62 27 98 47q97 51 149 147h287q-12 -79 -47 -135q-48 -74 -353 -262q-135 -83 -135 -168q0 -49 35 -87q46 -50 133 -50q178 0 234 215l317 -74q-49 -131 -88 -188q-149 -215 -483 -215q-210 0 -347 92q-151 101 -151 276zM602 1122l72 324 h326l-74 -324h-324z" />
<glyph unicode="&#xbc;" horiz-adv-x="555" d="M12 1520h338l192 -334h-192z" />
<glyph unicode="&#xbd;" horiz-adv-x="555" d="M12 1186l193 334h337l-337 -334h-193z" />
<glyph unicode="&#xbe;" horiz-adv-x="555" d="M-94 1188l258 258h346l141 -258h-225l-96 151l-143 -151h-281z" />
<glyph unicode="&#xbf;" horiz-adv-x="555" d="M-122 1184q27 106 68 164q75 102 188 102q55 0 113 -23q21 -8 65 -30q43 -21 68 -31q33 -12 53 -12q61 0 96 80h152q-50 -127 -93 -180q-71 -91 -180 -91q-66 0 -137 37l-96 49q-37 13 -57 13q-64 0 -99 -78h-141z" />
<glyph unicode="&#xc0;" horiz-adv-x="555" d="M-155 1184l39 182h827l-41 -182h-825z" />
<glyph unicode="&#xc1;" horiz-adv-x="555" d="M-88 1446h246q0 -111 106 -111q98 0 129 111h250q-33 -119 -90 -176q-110 -107 -293 -107q-145 0 -237 62q-106 70 -111 221z" />
<glyph unicode="&#xc2;" horiz-adv-x="555" d="M83 1184l51 237h334l-53 -237h-332z" />
<glyph unicode="&#xc3;" horiz-adv-x="555" d="M-159 1184l51 237h330l-49 -237h-332zM335 1184l51 237h332l-52 -237h-331z" />
<glyph unicode="&#xc4;" horiz-adv-x="555" d="M55 1378q0 91 65 156q66 65 156 65q92 0 157 -65q64 -65 64 -156q0 -92 -64 -156q-65 -65 -157 -65q-90 0 -155 66q-66 65 -66 155zM192 1378q0 -38 25 -59q24 -25 59 -25t60 25q24 25 24 59q0 35 -25 60q-25 24 -59 24q-35 0 -59 -25q-25 -25 -25 -59z" />
<glyph unicode="&#xc5;" horiz-adv-x="555" d="M55 -430l20 92q46 -4 74 -4q42 0 72 19q27 18 27 38q0 41 -54 41q-36 0 -100 -18l14 72l197 225h94l-117 -178q77 10 92 10q123 0 123 -107q0 -49 -38 -98q-76 -98 -267 -98z" />
<glyph unicode="&#xc6;" horiz-adv-x="555" d="M-182 1186l193 334h337l-337 -334h-193zM211 1186l191 334h338l-338 -334h-191z" />
<glyph unicode="&#xc7;" horiz-adv-x="555" d="M61 -229q0 106 156 229h102q-74 -90 -74 -158q0 -44 27 -76q32 -36 86 -36q39 0 88 24l45 -76q-103 -71 -231 -71q-75 0 -130 36q-69 44 -69 128z" />
<glyph unicode="&#xc8;" horiz-adv-x="555" d="M-92 1446h223l96 -154l144 154h278l-258 -262h-344z" />
<glyph unicode="&#xc9;" horiz-adv-x="1323" d="M69 524l61 262h1149l-61 -262h-1149z" />
<glyph unicode="&#xca;" horiz-adv-x="2174" d="M-141 0l1108 1446h1202l-61 -279h-621l-63 -280h598l-58 -264h-600l-78 -347h736l-64 -276h-1087l75 338h-430l-241 -338h-416zM707 600h301l135 604z" />
<glyph unicode="&#xcb;" horiz-adv-x="768" d="M133 950q0 145 154 207q76 31 331 45q13 62 13 70q0 67 -92 67q-90 0 -117 -92l-197 4q32 103 84 146q80 67 254 67q262 0 262 -180q0 -29 -12 -94l-78 -346q-4 -21 -4 -33l4 -29h-190l-6 31q0 8 12 64q-62 -113 -219 -113q-123 0 -173 85q-26 46 -26 101zM332 973 q0 -68 82 -68q52 0 92 29q56 40 84 145q-258 -5 -258 -106z" />
<glyph unicode="&#xcc;" horiz-adv-x="1150" d="M-40 395l43 195l150 72l176 784h358l-133 -590l459 223l-43 -200l-461 -222l-82 -364h610l-67 -293h-967l104 465z" />
<glyph unicode="&#xcd;" horiz-adv-x="1622" d="M100 584q0 370 236 641q223 260 602 260q200 0 358 -88l111 131l112 -96l-104 -123q162 -196 162 -447q0 -325 -195 -585q-235 -314 -639 -314q-209 0 -389 98l-139 -161l-113 96l137 164q-139 168 -139 424zM454 573q0 -52 21 -137l610 717q-90 47 -180 47 q-228 0 -354 -234q-97 -181 -97 -393zM561 305q96 -69 213 -69q204 0 336 219q114 189 114 405q0 109 -37 182z" />
<glyph unicode="&#xce;" horiz-adv-x="2217" d="M96 578q0 267 143 509q231 392 654 392q184 0 356 -90l14 57h957l-64 -279h-614l-64 -278h588l-55 -262h-592l-82 -351h729l-63 -276h-1069l12 57q-188 -84 -322 -84q-233 0 -379 163q-149 166 -149 442zM465 621q0 -200 100 -291q71 -64 178 -64q167 0 260 142 q15 22 39 67l115 506q-21 114 -94 170q-65 49 -158 49q-178 0 -311 -181q-129 -177 -129 -398z" />
<glyph unicode="&#xcf;" horiz-adv-x="724" d="M122 1077q0 145 94 258q110 130 293 131q139 2 227 -80q93 -85 93 -229q0 -150 -99 -264q-112 -129 -293 -129q-159 0 -244 104q-71 87 -71 209zM323 1073q0 -153 131 -153q86 0 133 86q39 69 39 155q0 152 -133 152q-81 -3 -129 -85q-41 -70 -41 -155z" />
<glyph unicode="&#xd0;" horiz-adv-x="1921" d="M18 264q0 117 70 209q85 112 274 153q117 26 424 42q18 87 18 110q0 113 -143 113q-47 0 -84 -19q-69 -34 -98 -131l-314 9q24 81 46 122q117 218 460 218q210 0 346 -95q164 97 322 97q164 0 290 -78q197 -124 197 -406q0 -47 -8 -137h-760q0 -125 31 -172 q56 -88 182 -88q129 0 207 102q15 19 35 56l264 -95q-183 -305 -510 -305q-261 0 -434 205q-181 -207 -481 -207q-211 0 -292 136q-42 70 -42 161zM333 299q0 -104 119 -104q217 0 285 276q-404 0 -404 -172zM1099 668h447q0 111 -86 168q-49 32 -111 32q-52 0 -100 -22 q-85 -40 -150 -178z" />
<glyph unicode="&#xd1;" horiz-adv-x="598" d="M0 0l244 1055h315l-240 -1055h-319z" />
<glyph unicode="&#xd2;" horiz-adv-x="598" d="M-34 508l41 178l170 88l149 672h318l-109 -485l195 100l-39 -178l-197 -101l-174 -782h-315l133 596z" />
<glyph unicode="&#xd3;" horiz-adv-x="1280" d="M57 461q0 268 185 453q180 180 425 180q94 0 236 -43l96 141h152l-140 -205q176 -176 176 -389q0 -235 -151 -416q-179 -213 -485 -213q-91 0 -207 43l-99 -145h-153l141 205q-176 172 -176 389zM364 461q0 -76 33 -150l360 525q-58 22 -100 22q-130 0 -215 -126 q-78 -117 -78 -271zM487 221q70 -20 102 -20q119 0 200 114q83 117 83 293q0 61 -27 137z" />
<glyph unicode="&#xd4;" horiz-adv-x="1961" d="M61 459q0 253 163 434q175 197 455 197q193 0 357 -132q163 134 348 134q294 0 424 -211q61 -106 61 -267q0 -49 -8 -143h-741q0 -128 35 -178q52 -82 172 -82q130 0 227 158l266 -95q-123 -187 -246 -247q-118 -60 -266 -60q-188 0 -358 137q-179 -137 -379 -137 q-212 0 -353 122q-157 134 -157 370zM380 469q0 -150 84 -212q49 -38 115 -38q121 0 199 117q74 110 74 262q0 90 -25 139q-51 108 -176 105q-122 -2 -201 -125q-70 -110 -70 -248zM1163 668h424q0 106 -70 159q-54 41 -117 41q-53 0 -104 -28q-82 -45 -133 -172z" />
<glyph unicode="&#xd5;" horiz-adv-x="1280" d="M0 2l223 985q39 160 80 238q137 248 455 248q226 0 334 -113q88 -91 88 -232q0 -59 -23 -120q-48 -136 -205 -183q44 -15 68 -32q141 -85 141 -285q0 -225 -137 -377q-141 -156 -358 -156q-82 0 -230 39l53 232q86 -25 129 -25q93 0 154 70q68 76 68 209q0 143 -88 190 q-50 27 -156 25l49 219q45 -16 74 -16q94 0 137 79q27 50 27 105q0 137 -142 137q-91 0 -136 -68q-27 -39 -52 -141l-236 -1028h-317z" />
<glyph unicode="&#xd6;" horiz-adv-x="468" d="M129 358h260v-716h-260v716zM129 666v716h260v-716h-260z" />
<glyph unicode="&#xd7;" horiz-adv-x="1622" d="M98 592q0 310 182 566q231 327 649 327q274 0 449 -148q197 -166 197 -469q0 -244 -115 -458q-129 -245 -342 -359q-166 -86 -377 -86q-327 0 -500 189q-143 157 -143 438zM463 580q0 -163 92 -251q81 -77 207 -77q223 0 352 233q100 182 100 381q0 201 -139 281 q-86 49 -189 43q-231 -11 -346 -265q-77 -171 -77 -345zM682 1866h385l155 -269h-206z" />
<glyph unicode="&#xd8;" horiz-adv-x="1492" d="M110 633q0 327 196 572q222 278 586 278q175 0 322 -70q203 -94 297 -340l-346 -78q-74 207 -262 207q-180 0 -300 -182q-110 -168 -110 -383q0 -185 88 -286q75 -87 186 -87q87 0 177 62q86 64 167 223l299 -168q-226 -416 -663 -416l-68 -106q72 10 90 10 q125 0 125 -107q0 -83 -88 -145q-78 -53 -219 -53l-137 6l20 92q46 -4 74 -4q42 0 72 19q26 18 26 38q0 41 -53 41q-36 0 -100 -18l16 74l137 161q-228 38 -369 191q-163 177 -163 469z" />
<glyph unicode="&#xd9;" d="M139 225l373 371l-373 375l184 180l373 -369l375 369l182 -180l-371 -375l371 -371l-182 -186l-375 373l-373 -373z" />
<glyph unicode="&#xda;" horiz-adv-x="1449" d="M0 0l330 1446h356l289 -932l196 932h330l-330 -1446h-352l-284 928l-205 -928h-330zM526 1610q39 109 81 158q71 85 194 85q73 0 289 -67q51 -19 92 -19q67 0 92 76h149q-41 -111 -84 -161q-75 -87 -204 -87q-27 0 -72 9q-47 8 -130 35q-88 28 -128 36q-29 4 -43 4 q-60 0 -90 -69h-146z" />
<glyph unicode="&#xdb;" horiz-adv-x="1622" d="M98 592q0 310 182 566q231 327 649 327q274 0 449 -148q197 -166 197 -469q0 -244 -115 -458q-129 -245 -342 -359q-166 -86 -377 -86q-327 0 -500 189q-143 157 -143 438zM463 580q0 -163 92 -251q81 -77 207 -77q223 0 352 233q100 182 100 381q0 201 -139 281 q-86 49 -189 43q-231 -11 -346 -265q-77 -171 -77 -345zM612 1610q39 109 80 158q72 85 194 85q73 0 289 -67q52 -19 92 -19q67 0 93 76h149q-42 -111 -84 -161q-76 -87 -205 -87q-26 0 -71 9q-47 8 -130 35q-89 28 -128 36q-29 4 -43 4q-60 0 -91 -69h-145z" />
<glyph unicode="&#xdc;" horiz-adv-x="1236" d="M-71 -422l315 1477h316l-125 -580q-19 -78 -19 -127q0 -110 119 -110q159 0 215 241l129 576h318l-240 -1055h-315l32 137q-87 -145 -208 -145q-84 0 -123 61l-105 -475h-309z" />
<glyph unicode="&#xdd;" horiz-adv-x="1622" d="M98 592q0 310 182 566q231 327 649 327q274 0 449 -148q197 -166 197 -469q0 -244 -115 -458q-129 -245 -342 -359q-166 -86 -377 -86q-327 0 -500 189q-143 157 -143 438zM463 580q0 -163 92 -251q81 -77 207 -77q223 0 352 233q100 182 100 381q0 201 -139 281 q-86 49 -189 43q-231 -11 -346 -265q-77 -171 -77 -345zM852 1597l155 269h385l-333 -269h-207z" />
<glyph unicode="&#xde;" horiz-adv-x="1280" d="M-83 -385l410 1833h284l-106 -498q120 133 284 133q166 0 277 -108q129 -125 129 -357q0 -243 -141 -434q-158 -213 -406 -213q-199 0 -303 140l-113 -496h-315zM413 424q0 -119 68 -179q53 -46 128 -46q127 0 206 142q67 122 67 267q0 148 -74 211q-49 39 -117 39 q-111 0 -180 -94q-98 -135 -98 -340z" />
<glyph unicode="&#xdf;" horiz-adv-x="1280" d="M59 461q0 189 102 352q107 170 297 240q105 39 195 39q125 0 207 -82q-15 81 -74 194l-315 -74l-33 113l278 64q-33 44 -86 102l250 78q44 -49 97 -119l178 41l37 -111l-150 -34q154 -272 154 -588q0 -303 -165 -499q-174 -208 -466 -208q-228 0 -369 141 q-137 137 -137 351zM378 463q0 -125 68 -191q57 -55 141 -55q136 0 214 134q65 111 65 249q0 244 -215 244q-128 -6 -206 -136q-67 -111 -67 -245z" />
<glyph unicode="&#xe0;" horiz-adv-x="641" d="M4 0l324 1446h360l-324 -1446h-360zM190 1866h385l156 -269h-207z" />
<glyph unicode="&#xe1;" horiz-adv-x="1622" d="M98 592q0 310 182 566q231 327 649 327q274 0 449 -148q197 -166 197 -469q0 -244 -115 -458q-129 -245 -342 -359q-166 -86 -377 -86q-327 0 -500 189q-143 157 -143 438zM463 580q0 -163 92 -251q81 -77 207 -77q223 0 352 233q100 182 100 381q0 201 -139 281 q-86 49 -189 43q-231 -11 -346 -265q-77 -171 -77 -345zM630 1602l279 237h393l135 -237h-233l-100 157l-144 -157h-330z" />
<glyph unicode="&#xe2;" d="M0 0l330 1446h1040l-63 -279h-686l-64 -278h662l-60 -266h-661l-80 -349h788l-59 -274h-1147zM723 1597l156 269h385l-334 -269h-207z" />
<glyph unicode="&#xe3;" d="M0 0l330 1446h1040l-63 -279h-686l-64 -278h662l-60 -266h-661l-80 -349h788l-59 -274h-1147zM477 1604l53 233h332l-55 -233h-330zM1012 1604l51 233h332l-54 -233h-329z" />
<glyph unicode="&#xe4;" horiz-adv-x="1449" d="M-141 0l883 1446h405l154 -1446h-352l-19 287h-532l-160 -287h-379zM545 549h369l-39 594zM820 1597l155 269h385l-334 -269h-206z" />
<glyph unicode="&#xe5;" d="M-36 0l68 297l884 866h-696l66 283h1144l-69 -299l-887 -866h747l-63 -281h-1194zM566 1835h238l100 -158l141 158h332l-280 -238h-392z" />
<glyph unicode="&#xe6;" horiz-adv-x="1150" d="M55 471q0 232 158 414q177 205 458 205q80 0 162 -21q230 -66 326 -338l-281 -63q-53 174 -207 174q-136 0 -220 -139q-70 -115 -70 -246q0 -133 78 -193q56 -43 135 -43q142 0 219 174l289 -88q-116 -208 -273 -282q-115 -56 -239 -56l-72 -112q72 10 90 10 q125 0 125 -107q0 -81 -88 -143q-79 -53 -219 -53l-140 6l21 92q45 -4 74 -4q41 0 71 19q27 18 27 38q0 41 -53 41q-36 0 -101 -18l17 72l143 165q-215 35 -329 184q-101 132 -101 312z" />
<glyph unicode="&#xe7;" d="M16 465v260h1364v-725h-260v465h-1104z" />
<glyph unicode="&#xe8;" horiz-adv-x="1449" d="M-141 0l883 1446h405l154 -1446h-352l-19 287h-532l-160 -287h-379zM527 1610q38 109 80 158q72 85 194 85q73 0 289 -67q51 -19 92 -19q67 0 92 76h150q-42 -111 -85 -161q-75 -87 -204 -87q-27 0 -72 9q-46 8 -130 35q-88 28 -128 36q-28 4 -43 4q-59 0 -90 -69h-145z M545 549h369l-39 594z" />
<glyph unicode="&#xe9;" horiz-adv-x="1409" d="M2 0l322 1446h360l-45 -205h264q275 0 399 -162q80 -105 80 -270q0 -353 -317 -487q-126 -52 -356 -52h-287l-64 -270h-356zM483 532h256q112 0 178 50q103 76 103 213q0 188 -240 188h-196z" />
<glyph unicode="&#xea;" horiz-adv-x="1705" d="M225 1128l31 140q189 3 268 116h154l-195 -868h-207l144 635q-88 -23 -195 -23zM313 0l944 1389h176l-944 -1389h-176zM921 213l37 164l441 491h237l-117 -512h127l-32 -143h-127l-48 -213h-202l49 213h-365zM1114 356h205l80 322z" />
<glyph unicode="&#xeb;" horiz-adv-x="1449" d="M-141 0l883 1446h405l154 -1446h-352l-19 287h-532l-160 -287h-379zM545 549h369l-39 594zM545 1602l279 237h393l135 -237h-233l-101 157l-143 -157h-330z" />
<glyph unicode="&#xec;" horiz-adv-x="1622" d="M98 592q0 310 182 566q231 327 649 327q274 0 449 -148q197 -166 197 -469q0 -244 -115 -458q-129 -245 -342 -359q-166 -86 -377 -86q-327 0 -500 189q-143 157 -143 438zM463 580q0 -163 92 -251q81 -77 207 -77q223 0 352 233q100 182 100 381q0 201 -139 281 q-86 49 -189 43q-231 -11 -346 -265q-77 -171 -77 -345zM602 1606l53 233h332l-55 -233h-330zM1136 1606l52 233h331l-53 -233h-330z" />
<glyph unicode="&#xed;" horiz-adv-x="1705" d="M64 803l209 22q-6 -24 -6 -51q0 -49 30 -83q34 -38 86 -38q64 0 98 50q27 39 27 90q0 108 -135 100l29 133q24 -6 47 -6q70 0 105 55q26 41 26 88q0 92 -92 92q-103 0 -121 -139l-199 23q27 110 66 155q85 111 260 111q130 0 212 -72q79 -68 79 -170q0 -64 -35 -114 q-41 -56 -135 -86q112 -71 112 -183q0 -113 -95 -196q-100 -86 -251 -86q-150 0 -235 76q-91 82 -82 229zM375 0l944 1386h176l-942 -1386h-178zM928 213l39 164l440 491h236l-115 -512h127l-33 -143h-127l-49 -213h-200l47 213h-365zM1121 356h207l77 322z" />
<glyph unicode="&#xee;" horiz-adv-x="1492" d="M120 416q0 67 31 225l180 807h362l-196 -883q-15 -64 -15 -108q0 -100 83 -147q59 -34 133 -34q124 0 192 87q45 57 84 192l209 893h360l-213 -950q-53 -228 -141 -330q-172 -199 -504 -199q-223 0 -374 93q-191 117 -191 354zM566 1602l279 237h393l135 -237h-233 l-100 157l-144 -157h-330z" />
<glyph unicode="&#xef;" horiz-adv-x="1492" d="M120 416q0 67 31 225l180 807h362l-196 -883q-15 -64 -15 -108q0 -100 83 -147q59 -34 133 -34q124 0 192 87q45 57 84 192l209 893h360l-213 -950q-53 -228 -141 -330q-172 -199 -504 -199q-223 0 -374 93q-191 117 -191 354zM618 1866h385l155 -269h-207z" />
<glyph unicode="&#xf0;" horiz-adv-x="1492" d="M120 416q0 67 31 225l180 807h362l-196 -883q-15 -64 -15 -108q0 -100 83 -147q59 -34 133 -34q124 0 192 87q45 57 84 192l209 893h360l-213 -950q-53 -228 -141 -330q-172 -199 -504 -199q-223 0 -374 93q-191 117 -191 354zM540 1602l53 233h332l-55 -233h-330z M1074 1602l52 233h331l-53 -233h-330z" />
<glyph unicode="&#xf1;" horiz-adv-x="641" d="M4 0l324 1446h360l-324 -1446h-360zM360 1597l156 269h385l-334 -269h-207z" />
<glyph unicode="&#xf2;" horiz-adv-x="1449" d="M-141 0l883 1446h405l154 -1446h-352l-19 287h-532l-160 -287h-379zM545 549h369l-39 594zM576 1866h385l155 -269h-206z" />
<glyph unicode="&#xf3;" horiz-adv-x="724" d="M86 1176q0 145 103 249q103 103 249 103t249 -103q104 -104 104 -249q0 -146 -104 -250q-103 -103 -249 -103t-249 103q-103 104 -103 250zM324 1176q0 -48 33 -82q34 -33 81 -33q48 0 81 33q34 34 34 82q0 47 -34 81q-33 33 -81 33q-47 0 -81 -33q-33 -34 -33 -81z" />
<glyph unicode="&#xf4;" horiz-adv-x="1705" d="M225 1128l31 140q187 3 268 116h154l-197 -868h-205l144 635q-88 -23 -195 -23zM264 0l944 1389h178l-946 -1389h-176zM917 0l31 137l373 305q121 100 121 181q0 108 -103 108q-132 0 -119 -203l-190 25q4 68 12 100q23 96 94 160q85 76 211 76q131 0 213 -74 q80 -73 80 -186q0 -149 -198 -307l-222 -158h359l-39 -164h-623z" />
<glyph unicode="&#xf5;" d="M4 465v260h1366v-260h-1366z" />
<glyph unicode="&#xf6;" d="M198 1446h358l201 -520l379 520h408l-682 -836l-138 -610h-358l145 655zM722 1597l156 269h385l-334 -269h-207z" />
<glyph unicode="&#xf7;" horiz-adv-x="724" d="M61 516l31 137l370 305q121 96 121 181q0 108 -102 108q-131 0 -117 -203l-190 25q4 68 12 100q23 96 94 160q84 76 209 76q131 0 213 -74q80 -73 80 -186q0 -148 -199 -307l-219 -158h356l-38 -164h-621z" />
<glyph unicode="&#xf8;" horiz-adv-x="1492" d="M120 416q0 67 31 225l180 807h362l-196 -883q-15 -64 -15 -108q0 -100 83 -147q59 -34 133 -34q124 0 192 87q45 57 84 192l209 893h360l-213 -950q-53 -228 -141 -330q-172 -199 -504 -199q-223 0 -374 93q-191 117 -191 354zM788 1597l155 269h385l-334 -269h-206z" />
<glyph unicode="&#xf9;" horiz-adv-x="1705" d="M139 723q0 310 217 522q213 207 512 207q312 0 524 -217q207 -212 205 -514q-1 -305 -212 -516t-519 -211q-293 0 -506 202q-221 212 -221 527zM205 723q0 -278 195 -472q193 -192 468 -192q280 0 472 194q190 191 192 468q1 275 -187 469q-192 196 -473 196 q-280 0 -474 -195q-193 -193 -193 -468zM528 262v938h334q151 0 221 -22q166 -52 166 -232q0 -141 -164 -215q83 -53 105 -176q33 -208 79 -293h-258q-29 60 -51 203q-18 133 -41 160q-24 27 -127 30h-39v-393h-225zM774 834h98q101 0 131 18q41 23 41 82q0 62 -49 84 q-27 10 -154 10h-67v-194z" />
<glyph unicode="&#xfa;" horiz-adv-x="1705" d="M159 723q0 309 217 521q213 208 512 208q313 0 524 -217q207 -213 205 -516q-1 -304 -212 -514q-211 -211 -519 -211q-293 0 -506 202q-221 212 -221 527zM225 723q0 -278 195 -472q193 -192 468 -192q279 0 472 193q190 192 192 467q1 276 -187 470q-192 197 -473 197 t-475 -195q-192 -193 -192 -468zM392 723q0 217 135 361q143 153 377 153q233 0 402 -174l-178 -172q-104 100 -226 100q-127 0 -196 -84q-60 -72 -60 -182q0 -119 71 -191q71 -73 190 -73q122 0 221 92l178 -164q-164 -172 -402 -172q-241 0 -381 152q-131 140 -131 354z " />
<glyph unicode="&#xfb;" d="M0 0l330 1446h1040l-63 -279h-686l-64 -278h662l-60 -266h-661l-80 -349h788l-59 -274h-1147zM502 1602l278 237h394l135 -237h-234l-100 157l-144 -157h-329z" />
<glyph unicode="&#xfc;" horiz-adv-x="1409" d="M116 1309v137h588v-137h-207v-543h-172v543h-209zM759 766v680h217l156 -492l145 492h219v-680h-168l9 362q0 59 12 140l-29 -111l-114 -391h-154l-121 393l-29 105q12 -97 15 -136l8 -362h-166z" />
<glyph unicode="&#xfd;" d="M90 0v260h1194v-260h-1194zM90 760v260h469v426h260v-426h465v-260h-465v-428h-260v428h-469z" />
<glyph unicode="&#xfe;" horiz-adv-x="1536" d="M2 0l152 672h-138l45 196h138l131 578h499q401 0 549 -195q107 -139 107 -385q0 -429 -283 -680q-210 -186 -713 -186h-487zM418 279h157q204 4 291 57q94 54 165 186q85 158 85 350q0 160 -88 234q-72 59 -231 63h-179l-67 -301h369l-46 -196h-368z" />
<glyph unicode="&#xff;" horiz-adv-x="1449" d="M-141 0l883 1446h405l154 -1446h-352l-19 287h-532l-160 -287h-379zM545 549h369l-39 594zM547 1604l53 233h332l-55 -233h-330zM1082 1604l51 233h332l-54 -233h-329z" />
<glyph unicode="&#x2c6;" d="M198 1446h358l201 -520l379 520h408l-682 -836l-138 -610h-358l145 655zM477 1604l53 233h332l-56 -233h-329zM1011 1604l51 233h332l-53 -233h-330z" />
<glyph unicode="&#x2dc;" horiz-adv-x="641" d="M4 0l324 1446h360l-324 -1446h-360zM139 1602l279 237h393l135 -237h-233l-101 157l-143 -157h-330z" />
<glyph unicode="&#x2000;" horiz-adv-x="933" />
<glyph unicode="&#x2001;" horiz-adv-x="1866" />
<glyph unicode="&#x2002;" horiz-adv-x="933" />
<glyph unicode="&#x2003;" horiz-adv-x="1866" />
<glyph unicode="&#x2004;" horiz-adv-x="622" />
<glyph unicode="&#x2005;" horiz-adv-x="466" />
<glyph unicode="&#x2006;" horiz-adv-x="311" />
<glyph unicode="&#x2007;" horiz-adv-x="311" />
<glyph unicode="&#x2008;" horiz-adv-x="233" />
<glyph unicode="&#x2009;" horiz-adv-x="373" />
<glyph unicode="&#x200a;" horiz-adv-x="103" />
<glyph unicode="&#x2010;" horiz-adv-x="937" d="M-143 0l985 1446h291l-983 -1446h-293z" />
<glyph unicode="&#x2011;" horiz-adv-x="937" d="M-143 0l985 1446h291l-983 -1446h-293z" />
<glyph unicode="&#x2012;" horiz-adv-x="937" d="M-143 0l985 1446h291l-983 -1446h-293z" />
<glyph unicode="&#x2013;" horiz-adv-x="1236" d="M20 266q0 107 61 195q85 119 269 163q117 27 446 46q21 73 21 110q0 109 -146 109q-144 0 -188 -150l-316 11q55 171 152 243q128 97 387 97q422 0 422 -291q0 -68 -21 -150l-122 -553q-9 -33 -9 -51q0 -12 9 -45h-306q-10 41 -10 47t9 47q9 44 10 53q-38 -69 -95 -106 q-105 -72 -254 -72q-197 0 -276 135q-43 73 -43 162zM337 303q0 -108 132 -108q81 0 147 45q92 65 133 233q-290 -5 -375 -86q-37 -37 -37 -84zM364 1188l258 258h346l142 -258h-226l-96 151l-143 -151h-281z" />
<glyph unicode="&#x2014;" horiz-adv-x="1236" d="M20 266q0 107 61 195q85 119 269 163q117 27 446 46q21 73 21 110q0 109 -146 109q-144 0 -188 -150l-316 11q55 171 152 243q128 97 387 97q422 0 422 -291q0 -68 -21 -150l-122 -553q-9 -33 -9 -51q0 -12 9 -45h-306q-10 41 -10 47t9 47q9 44 10 53q-38 -69 -95 -106 q-105 -72 -254 -72q-197 0 -276 135q-43 73 -43 162zM325 1180l51 237h330l-49 -237h-332zM337 303q0 -108 132 -108q81 0 147 45q92 65 133 233q-290 -5 -375 -86q-37 -37 -37 -84zM819 1180l51 237h332l-52 -237h-331z" />
<glyph unicode="&#x2018;" horiz-adv-x="1236" d="M20 266q0 107 61 195q85 119 269 163q117 27 446 46q21 73 21 110q0 109 -146 109q-144 0 -188 -150l-316 11q55 171 152 243q128 97 387 97q422 0 422 -291q0 -68 -21 -150l-122 -553q-9 -33 -9 -51q0 -12 9 -45h-306q-10 41 -10 47t9 47q9 44 10 53q-38 -69 -95 -106 q-105 -72 -254 -72q-197 0 -276 135q-43 73 -43 162zM337 303q0 -108 132 -108q81 0 147 45q92 65 133 233q-290 -5 -375 -86q-37 -37 -37 -84zM423 1520h338l193 -334h-193z" />
<glyph unicode="&#x2019;" horiz-adv-x="1236" d="M20 266q0 107 61 195q85 119 269 163q117 27 446 46q21 73 21 110q0 109 -146 109q-144 0 -188 -150l-316 11q55 171 152 243q128 97 387 97q422 0 422 -291q0 -68 -21 -150l-122 -553q-9 -33 -9 -51q0 -12 9 -45h-306q-10 41 -10 47t9 47q9 44 10 53q-38 -69 -95 -106 q-105 -72 -254 -72q-197 0 -276 135q-43 73 -43 162zM337 303q0 -108 132 -108q81 0 147 45q92 65 133 233q-290 -5 -375 -86q-37 -37 -37 -84zM557 1378q0 91 65 156t156 65q92 0 156 -65q65 -65 65 -156q0 -92 -65 -156q-64 -65 -156 -65q-90 0 -156 66q-65 65 -65 155z M694 1378q0 -38 24 -59q25 -25 60 -25t59 25q25 25 25 59q0 35 -25 60q-25 24 -59 24q-35 0 -60 -25q-24 -25 -24 -59z" />
<glyph unicode="&#x201a;" horiz-adv-x="1236" d="M20 266q0 107 61 195q85 119 269 163q117 27 446 46q21 73 21 110q0 109 -146 109q-144 0 -188 -150l-316 11q55 171 152 243q128 97 387 97q422 0 422 -291q0 -68 -21 -150l-122 -553q-9 -33 -9 -51q0 -12 9 -45h-306q-10 41 -10 47t9 47q9 44 10 53q-38 -69 -95 -106 q-105 -72 -254 -72q-197 0 -276 135q-43 73 -43 162zM337 303q0 -108 132 -108q81 0 147 45q92 65 133 233q-290 -5 -375 -86q-37 -37 -37 -84zM385 1184q26 106 67 164q76 102 189 102q54 0 112 -23q21 -8 66 -30q43 -21 67 -31q33 -12 54 -12q60 0 96 80h151 q-50 -127 -92 -180q-72 -91 -180 -91q-67 0 -137 37l-96 49q-37 13 -58 13q-64 0 -98 -78h-141z" />
<glyph unicode="&#x201c;" horiz-adv-x="1236" d="M59 477q0 221 142 400q169 215 456 215q205 0 336 -111q151 -128 151 -371q0 -45 -8 -139h-768q0 -126 35 -176q58 -82 170 -82q167 0 258 158l264 -95q-82 -133 -162 -195q-141 -112 -358 -112q-257 0 -397 164q-119 139 -119 344zM411 670h451q0 121 -90 172 q-51 28 -111 28q-160 0 -250 -200zM567 1186l192 334h338l-338 -334h-192z" />
<glyph unicode="&#x201d;" horiz-adv-x="1236" d="M59 477q0 221 142 400q169 215 456 215q205 0 336 -111q151 -128 151 -371q0 -45 -8 -139h-768q0 -126 35 -176q58 -82 170 -82q167 0 258 158l264 -95q-82 -133 -162 -195q-141 -112 -358 -112q-257 0 -397 164q-119 139 -119 344zM364 1188l258 258h346l142 -258h-226 l-96 151l-143 -151h-281zM411 670h451q0 121 -90 172q-51 28 -111 28q-160 0 -250 -200z" />
<glyph unicode="&#x201e;" horiz-adv-x="1236" d="M59 477q0 221 142 400q169 215 456 215q205 0 336 -111q151 -128 151 -371q0 -45 -8 -139h-768q0 -126 35 -176q58 -82 170 -82q167 0 258 158l264 -95q-82 -133 -162 -195q-141 -112 -358 -112q-257 0 -397 164q-119 139 -119 344zM344 1184l51 237h330l-50 -237h-331z M411 670h451q0 121 -90 172q-51 28 -111 28q-160 0 -250 -200zM837 1184l51 237h332l-51 -237h-332z" />
<glyph unicode="&#x2022;" horiz-adv-x="598" d="M0 0l244 1055h315l-240 -1055h-319zM45 1188l258 258h346l142 -258h-226l-96 151l-143 -151h-281z" />
<glyph unicode="&#x2026;" horiz-adv-x="598" d="M0 0l244 1055h315l-240 -1055h-319zM25 1184l51 237h330l-50 -237h-331zM518 1184l51 237h332l-51 -237h-332z" />
<glyph unicode="&#x202f;" horiz-adv-x="373" />
<glyph unicode="&#x2039;" horiz-adv-x="598" d="M0 0l244 1055h315l-240 -1055h-319zM61 1520h338l193 -334h-193z" />
<glyph unicode="&#x203a;" horiz-adv-x="1236" d="M4 0l240 1055h317l-31 -127q143 153 308 153q125 0 205 -69q85 -75 85 -205q0 -26 -14 -117l-158 -690h-315l137 621q12 69 12 98q0 119 -118 119q-70 0 -127 -58q-62 -61 -97 -219l-129 -561h-315zM385 1184q27 106 68 164q75 102 188 102q55 0 113 -23q21 -8 65 -30 q43 -21 68 -31q32 -12 53 -12q61 0 96 80h152q-50 -127 -93 -180q-71 -91 -180 -91q-66 0 -137 37l-96 49q-37 13 -57 13q-64 0 -99 -78h-141z" />
<glyph unicode="&#x205f;" horiz-adv-x="466" />
<glyph unicode="&#x20ac;" horiz-adv-x="1280" d="M59 475q0 227 155 408q178 209 463 209q247 0 387 -152q125 -136 125 -342q0 -244 -162 -427q-178 -202 -458 -202q-276 0 -411 186q-99 136 -99 320zM378 463q0 -102 47 -167q55 -77 162 -77q141 0 218 139q61 110 61 244q0 96 -35 152q-62 95 -180 90 q-128 -6 -205 -135q-68 -111 -68 -246zM403 1184q27 106 68 164q75 102 188 102q55 0 113 -23q21 -8 65 -30q43 -21 68 -31q33 -12 53 -12q61 0 96 80h152q-50 -127 -93 -180q-71 -91 -180 -91q-66 0 -137 37l-96 49q-37 13 -57 13q-64 0 -99 -78h-141z" />
<glyph unicode="&#x2122;" horiz-adv-x="1236" d="M73 250q0 38 18 135l150 670h317l-139 -621q-8 -45 -8 -69q0 -127 119 -127q47 0 90 22q85 48 129 219l129 576h315l-237 -1055h-316l31 139q-137 -147 -305 -147q-121 0 -204 67q-89 73 -89 191zM599 1186l193 334h338l-338 -334h-193z" />
<glyph unicode="&#xe000;" horiz-adv-x="1055" d="M0 0v1055h1055v-1055h-1055z" />
</font>
</defs>
</svg>
