<?xml version="1.0" standalone="no"?>
<!DOCTYPE svg PUBLIC "-//W3C//DTD SVG 1.1//EN" "http://www.w3.org/Graphics/SVG/1.1/DTD/svg11.dtd" >
<svg xmlns="http://www.w3.org/2000/svg">
<metadata></metadata>
<defs>
<font id="wc-mediumregular" horiz-adv-x="1150" >
<font-face units-per-em="2048" ascent="1638" descent="-410" />
<missing-glyph horiz-adv-x="811" />
<glyph horiz-adv-x="2048" />
<glyph horiz-adv-x="2048" />
<glyph unicode="&#xd;" horiz-adv-x="512" d="M163 0v283h268v-283h-268zM163 893v553h268v-553l-78 -533h-114z" />
<glyph unicode=" " horiz-adv-x="811" d="M65 1413q0 54 38 87q38 34 97 34q65 0 98 -47q25 -34 17 -94l-94 -531h-56l-96 506q-4 33 -4 45zM491 1413q0 52 38 87q39 34 97 34q77 0 107 -59q14 -25 10 -82l-96 -531h-56l-96 506q-4 33 -4 45z" />
<glyph unicode="!" horiz-adv-x="1366" d="M86 438v203h279l24 195h-256v204h283l55 408h213l-57 -408h200l56 408h207l-56 -408h240v-204h-266l-29 -195h252v-203h-277l-63 -438h-207l64 438h-203l-62 -438h-209l62 438h-250zM569 641h205l27 195h-203z" />
<glyph unicode="&#x22;" horiz-adv-x="1280" d="M73 272l207 158q127 -173 266 -184v391q-436 41 -436 369q0 128 72 231q106 150 364 190v222h189v-222q276 -29 440 -223l-193 -153q-88 111 -247 153v-327q464 -85 464 -428q0 -195 -139 -320q-115 -102 -325 -129v-233h-189v233q-321 59 -473 272zM380 1047 q0 -107 166 -138v295q-166 -25 -166 -157zM735 242q86 15 141 67q55 53 55 123q0 137 -196 176v-366z" />
<glyph unicode="#" horiz-adv-x="1792" d="M53 926q0 291 141 403q81 66 197 66q105 0 182 -56q139 -102 146 -401q0 -164 -31 -252q-81 -225 -305 -225q-102 0 -174 49q-156 104 -156 416zM237 918q0 -297 152 -297q145 0 145 315q0 303 -147 303q-150 0 -150 -321zM487 -10l647 1396l138 -63l-644 -1397z M1075 459q0 293 152 403q78 58 186 58q95 0 164 -46q156 -101 164 -417q0 -166 -35 -258q-82 -213 -299 -213q-113 0 -193 61q-139 107 -139 412zM1259 442q0 -297 148 -297q149 0 149 306q0 311 -147 311q-55 0 -92 -41q-35 -37 -47 -127q-11 -64 -11 -152z" />
<glyph unicode="$" horiz-adv-x="1323" d="M88 377q0 248 315 428q-63 98 -63 213q0 156 98 249q92 89 236 89q151 0 247 -98q87 -89 87 -209q0 -236 -273 -330q84 -154 189 -277q61 91 75 228h236q-34 -242 -168 -406q59 -63 145 -63q25 0 45 4v-205q-89 -6 -104 -6q-163 0 -258 84q-163 -109 -348 -109 q-242 0 -365 146q-94 112 -94 262zM336 393q0 -87 64 -148q65 -63 161 -63q108 0 199 78l-246 363q-178 -103 -178 -230zM571 1055q0 -60 62 -156q160 53 160 154q0 46 -31 77t-80 31q-111 0 -111 -106z" />
<glyph unicode="%" horiz-adv-x="425" d="M81 1161v285h266v-254q0 -160 -43 -213q-68 -85 -209 -96v108q75 22 97 68q14 28 14 102h-125z" />
<glyph unicode="&#x26;" horiz-adv-x="724" d="M96 711q0 281 160 530q132 202 344 369l71 -103q-158 -166 -225 -395q-63 -215 -63 -481q0 -465 288 -715l-59 -102q-221 120 -375 379q-141 233 -141 518z" />
<glyph unicode="'" horiz-adv-x="724" d="M53 -84q155 155 225 395q64 213 64 482q0 461 -289 714l59 103q224 -121 375 -379q141 -237 141 -518q0 -285 -159 -531q-132 -205 -344 -368z" />
<glyph unicode="(" horiz-adv-x="768" d="M71 1169l45 136l160 -52l65 -55l-32 84v164h143v-164l-35 -84l66 55l161 62l52 -131l-170 -66l-88 10l77 -47l111 -141l-111 -86l-110 137l-25 90l-18 -90l-101 -137l-114 86l100 141l62 37h-72z" />
<glyph unicode=")" horiz-adv-x="1366" d="M86 492v208h494v494h211v-494h489v-208h-489v-492h-211v492h-494z" />
<glyph unicode="*" horiz-adv-x="425" d="M75 0v281h272v-248q0 -178 -73 -242q-55 -48 -183 -76v119q111 14 111 166h-127z" />
<glyph unicode="+" horiz-adv-x="724" d="M108 528v230h508v-230h-508z" />
<glyph unicode="," horiz-adv-x="425" d="M75 0v281h270v-281h-270z" />
<glyph unicode="-" horiz-adv-x="980" d="M26 0l688 1446h242l-686 -1446h-244z" />
<glyph unicode="." d="M73 684q0 357 123 526q141 195 391 195q247 0 381 -201q115 -172 115 -506q0 -537 -299 -673q-92 -43 -209 -43q-264 0 -402 215q-100 160 -100 487zM339 680q0 -216 38 -320q55 -151 204 -151q137 0 192 131q45 110 45 350q0 490 -233 490q-149 0 -206 -161 q-40 -113 -40 -339z" />
<glyph unicode="/" d="M153 961v157h27q140 2 206 36q116 57 152 228h205v-1382h-252v791q0 108 -14 134q-19 36 -99 36h-225z" />
<glyph unicode="0" d="M116 0v199q213 146 432 370q203 209 203 394q0 87 -43 143q-49 63 -139 63q-202 0 -195 -319l-258 22q0 244 117 383q128 150 356 150q198 0 321 -118q124 -119 124 -314q0 -259 -289 -520q-184 -159 -293 -240h604v-213h-940z" />
<glyph unicode="1" d="M96 453h272q-2 -15 -2 -43q0 -90 57 -147q60 -58 160 -58q109 0 166 69q49 60 49 150q0 122 -94 174q-48 29 -147 29l-68 -2v215l113 -2q166 11 166 163q0 75 -45 124q-49 53 -131 53q-187 0 -197 -232l-270 58q36 194 151 290q130 111 324 111q154 0 275 -73 q165 -98 165 -294q0 -126 -76 -213q-49 -55 -153 -84q103 -21 172 -91q90 -91 90 -240q0 -187 -128 -304q-135 -124 -366 -124q-227 0 -348 114q-135 122 -135 357z" />
<glyph unicode="2" d="M34 319v181l606 884h250v-856h180v-209h-180v-319h-250v319h-606zM298 528h342l15 549z" />
<glyph unicode="3" d="M73 387l287 21q9 -205 198 -205q74 0 121 33q105 69 105 245q0 124 -69 195q-63 65 -161 65q-157 0 -207 -129l-231 15l98 759h768l-20 -231h-539l-47 -305q103 102 266 102q186 0 302 -126q118 -127 118 -334q0 -221 -134 -362q-141 -148 -380 -148q-150 0 -262 57 q-191 101 -213 348z" />
<glyph unicode="4" d="M98 651q0 269 74 449q126 305 440 305q248 0 365 -182q41 -67 57 -162l-262 -37q-3 84 -60 125q-44 31 -102 31q-222 0 -246 -428q111 139 291 139q161 0 271 -105q124 -119 124 -325q0 -212 -132 -347q-131 -132 -333 -132q-251 0 -381 196q-106 162 -106 473zM389 436 q0 -73 29 -129q50 -96 172 -96q106 0 159 73q43 59 43 150q0 103 -52 164q-53 61 -144 61q-100 0 -157 -68q-50 -62 -50 -155z" />
<glyph unicode="5" d="M131 1145v241h918v-223q-404 -502 -465 -1163h-338q52 307 133 506q107 263 377 639h-625z" />
<glyph unicode="6" d="M59 397q0 219 227 326q-178 84 -178 301q0 165 126 271q132 110 349 110q214 0 343 -107q128 -107 128 -286q0 -202 -180 -289q213 -107 213 -326q0 -187 -146 -302q-144 -113 -372 -113q-233 0 -373 118q-137 114 -137 297zM348 406q0 -90 60 -143q62 -54 173 -54 q103 0 166 51q66 53 66 148q0 59 -31 107q-57 89 -201 89q-140 0 -199 -83q-34 -49 -34 -115zM370 993q0 -182 213 -182q203 0 203 182q0 187 -205 187q-211 2 -211 -187z" />
<glyph unicode="7" d="M102 330l281 41q8 -54 22 -78q41 -86 143 -86q121 0 182 144q46 111 46 263q-84 -120 -277 -120q-172 0 -281 108q-116 118 -116 326q0 232 146 362q129 115 323 115q141 0 244 -62q241 -149 241 -598q0 -366 -144 -567q-141 -196 -394 -196q-242 0 -353 176 q-42 66 -63 172zM368 954q0 -107 51 -172q52 -67 144 -67q58 0 105 29q87 55 87 196q0 106 -46 171q-51 71 -146 71q-78 0 -131 -53q-64 -61 -64 -175z" />
<glyph unicode="8" horiz-adv-x="512" d="M159 0v281h270v-281h-270zM159 762v280h270v-280h-270z" />
<glyph unicode="9" horiz-adv-x="512" d="M159 0v281h272v-261q0 -165 -69 -227q-63 -52 -189 -80v123q45 6 70 29q43 37 43 135h-127zM159 760v282h272v-282h-272z" />
<glyph unicode=":" horiz-adv-x="1366" d="M0 614v213l1366 625v-231l-1083 -500l1083 -498v-229z" />
<glyph unicode=";" horiz-adv-x="1366" d="M0 299v211h1366v-211h-1366zM0 684v211h1366v-211h-1366z" />
<glyph unicode="&#x3c;" horiz-adv-x="1366" d="M0 -6v229l1081 498l-1081 500v231l1366 -625v-213z" />
<glyph unicode="=" d="M108 997q17 255 180 377q129 96 318 96q224 0 359 -124q128 -119 128 -302q0 -202 -166 -325q-137 -103 -123 -90q-75 -64 -75 -201q0 -43 2 -57h-240q0 211 30 299q22 66 91 123q-19 -16 104 71q97 76 97 174q0 82 -62 140q-63 59 -158 59q-224 0 -237 -268zM477 0v281 h272v-281h-272z" />
<glyph unicode="&#x3e;" horiz-adv-x="1835" d="M141 483q0 400 272 687q274 288 664 288q298 0 466 -179q150 -161 150 -411q0 -285 -148 -508q-147 -221 -333 -221q-107 0 -153 80q-20 34 -23 78q-123 -156 -277 -156q-113 0 -188 79q-88 91 -88 259q0 228 128 404q131 182 310 182q154 0 228 -147l24 104h162 l-68 -315q-57 -270 -57 -349q0 -71 51 -71q86 0 182 170q105 186 105 399q0 244 -158 367q-128 100 -321 100q-315 0 -549 -247q-238 -250 -238 -593q0 -309 216 -469q175 -131 429 -131q374 0 676 299l82 -104q-343 -332 -753 -332q-300 0 -519 161q-272 199 -272 576z M669 487q0 -94 49 -146q41 -44 99 -44q103 0 187 127t85 291q3 93 -47 147q-44 47 -106 47q-116 0 -196 -145q-71 -129 -71 -277z" />
<glyph unicode="?" horiz-adv-x="1323" d="M14 0l487 1446h308l493 -1446h-289l-84 283h-542l-84 -283h-289zM458 518h400l-199 666z" />
<glyph unicode="@" horiz-adv-x="1409" d="M165 0v1446h516q239 -3 313 -25q112 -33 182 -122q72 -91 72 -207q0 -114 -61 -197q-63 -83 -180 -104q130 -24 214 -118q95 -105 95 -263q0 -284 -258 -375q-98 -35 -328 -35h-565zM433 233h267q202 0 272 50q65 47 65 151q0 61 -26 109q-66 116 -309 116l-269 3v-429z M433 864h92q132 0 164 2q132 0 185 29q96 48 96 149q0 94 -84 144q-61 34 -283 37h-170v-361z" />
<glyph unicode="A" horiz-adv-x="1409" d="M75 727q0 354 205 562q190 194 481 194q444 0 590 -447l-270 -71q-13 82 -54 143q-86 127 -260 127q-178 0 -288 -136q-111 -138 -111 -368q0 -240 115 -380q110 -132 286 -132q166 0 277 141q50 68 76 150l253 -107q-49 -126 -124 -217q-193 -223 -500 -223 q-296 0 -482 201q-194 209 -194 563z" />
<glyph unicode="B" horiz-adv-x="1449" d="M145 0v1446h518q277 -5 428 -113q279 -196 279 -622q0 -452 -297 -623q-144 -84 -465 -88h-463zM415 244h115q249 0 338 32q215 85 215 433q0 346 -221 452q-82 37 -303 39h-144v-956z" />
<glyph unicode="C" horiz-adv-x="1280" d="M159 0v1446h1028v-242h-762v-340h697v-233h-697v-387h813v-244h-1079z" />
<glyph unicode="D" d="M165 0v1446h956v-242h-688v-360h604v-232h-604v-612h-268z" />
<glyph unicode="E" horiz-adv-x="1536" d="M94 709q0 338 200 557q198 217 498 217q219 0 385 -123q157 -114 226 -303l-258 -105q-96 287 -351 287q-195 0 -304 -154q-101 -142 -101 -368q0 -233 116 -369q112 -131 294 -131q132 0 225 72q114 88 131 264h-361v238h609v-791h-232v123q-162 -160 -395 -160 q-320 0 -508 227q-174 208 -174 519z" />
<glyph unicode="F" horiz-adv-x="1492" d="M165 0v1446h270v-547h621v547h272v-1446h-272v657h-621v-657h-270z" />
<glyph unicode="G" horiz-adv-x="598" d="M163 0v1446h266v-1446h-266z" />
<glyph unicode="H" horiz-adv-x="811" d="M53 -12v266q97 -21 143 -21q112 0 166 58q51 51 51 231v924h269v-1022q0 -204 -66 -295q-114 -160 -397 -160q-68 0 -166 19z" />
<glyph unicode="I" horiz-adv-x="1366" d="M163 0v1446h268v-664l580 664h319l-475 -545l506 -901h-309l-385 680l-236 -270v-410h-268z" />
<glyph unicode="J" horiz-adv-x="1067" d="M167 0v1448h272v-1202h574v-246h-846z" />
<glyph unicode="K" horiz-adv-x="1662" d="M155 0v1446h393l283 -1073l276 1073h394v-1446h-265l25 1188l-311 -1188h-244l-313 1188l26 -1188h-264z" />
<glyph unicode="L" horiz-adv-x="1449" d="M167 0v1446h244l639 -1022l-33 1022h266v-1446h-235l-633 1014l16 -1014h-264z" />
<glyph unicode="M" horiz-adv-x="1579" d="M98 721q0 330 199 547q197 215 495 215q286 0 482 -195q210 -210 210 -558v-7q-1 -324 -182 -535q-192 -225 -514 -225q-306 0 -497 221q-193 223 -193 537zM377 733q0 -239 120 -382q115 -138 299 -138q159 0 275 109q139 131 143 370v20q0 213 -103 358 q-117 165 -321 165q-186 0 -300 -138q-113 -138 -113 -364z" />
<glyph unicode="N" horiz-adv-x="1280" d="M167 0v1446h487q164 0 248 -23q134 -36 223 -134q117 -127 117 -324q0 -162 -77 -279q-91 -138 -271 -178q-80 -19 -244 -19h-211v-489h-272zM439 713h195q106 0 154 12q178 43 178 246q0 118 -72 184q-70 59 -250 59h-205v-501z" />
<glyph unicode="O" horiz-adv-x="1579" d="M73 723q0 321 177 533q190 227 509 227q331 0 522 -228q172 -205 172 -507q0 -276 -104 -441q26 -54 113 -87q63 -23 106 -23q8 0 29 4l-76 -258q-148 33 -307 178q-195 -158 -457 -158q-314 0 -502 216q-182 209 -182 544zM362 717q0 -218 117 -359q117 -139 294 -139 q194 0 301 170q89 141 89 338q0 232 -129 372q-116 126 -279 126q-176 0 -288 -155q-105 -146 -105 -353z" />
<glyph unicode="P" horiz-adv-x="1323" d="M165 0v1446h461q323 -4 448 -105q160 -130 160 -356q0 -180 -112 -293q-73 -74 -173 -104l322 -588h-309l-287 537h-242v-537h-268zM433 760h94q76 0 179 4q254 9 254 223q0 136 -115 195q-62 30 -287 30h-125v-452z" />
<glyph unicode="Q" horiz-adv-x="1366" d="M47 270l227 160q144 -219 449 -219q94 0 155 25q123 50 123 165q0 99 -108 144q-41 15 -168 45l-174 37q-142 34 -182 51q-244 99 -244 354q0 205 158 328q157 123 413 123q367 0 582 -293l-221 -166q-148 215 -375 215q-114 0 -191 -47q-82 -49 -82 -129q0 -82 84 -123 q50 -24 183 -49l149 -33q203 -43 308 -114q161 -111 161 -316q0 -232 -192 -357q-166 -108 -422 -108q-141 0 -258 33q-252 75 -375 274z" />
<glyph unicode="R" d="M47 1200v246h1061v-246h-399v-1200h-271v1200h-391z" />
<glyph unicode="S" horiz-adv-x="1492" d="M163 584v862h270v-889q0 -126 19 -176q62 -156 293 -156q149 0 231 72q80 72 80 274v875h272v-911q-2 -159 -21 -228q-31 -115 -134 -203q-162 -141 -437 -141q-144 0 -256 39q-232 80 -297 293q-17 62 -20 289z" />
<glyph unicode="T" horiz-adv-x="1236" d="M16 1446h285l323 -1141l314 1141h280l-411 -1446h-365z" />
<glyph unicode="U" horiz-adv-x="1705" d="M24 1446h276l197 -1102l225 1102h252l230 -1102l202 1102h279l-318 -1446h-315l-203 1006l-209 -1006h-315z" />
<glyph unicode="V" horiz-adv-x="1323" d="M18 0l485 784l-415 662h311l262 -414l250 414h315l-407 -662l489 -784h-309l-338 535l-330 -535h-313z" />
<glyph unicode="W" horiz-adv-x="1280" d="M20 1446h305l313 -600l318 600h301l-487 -875v-571h-267v571z" />
<glyph unicode="X" horiz-adv-x="1236" d="M49 0v221l791 981h-723v244h1060v-232l-759 -970h759v-244h-1128z" />
<glyph unicode="Y" horiz-adv-x="724" d="M122 -119v1673h545v-196h-277v-1278h277v-199h-545z" />
<glyph unicode="Z" horiz-adv-x="980" d="M26 1446h244l686 -1446h-242z" />
<glyph unicode="[" horiz-adv-x="724" d="M53 78h276v1276h-276v200h545v-1673h-545v197z" />
<glyph unicode="\" horiz-adv-x="1366" d="M198 664l399 782h187l383 -782h-242l-238 501l-249 -501h-240z" />
<glyph unicode="]" horiz-adv-x="1024" d="M-20 -154h1065v-102h-1065v102z" />
<glyph unicode="^" horiz-adv-x="425" d="M73 887v248q0 116 12 153q40 120 244 164v-121q-117 -19 -111 -164h127v-280h-272z" />
<glyph unicode="_" horiz-adv-x="1110" d="M53 295q0 74 33 139q75 151 329 199q221 45 318 76q0 155 -174 155q-133 0 -182 -65q-25 -31 -25 -90l-252 14q8 93 41 154q98 178 408 178q196 0 307 -66q123 -75 123 -280v-543q0 -105 45 -166h-291l-6 80q-124 -105 -303 -105q-169 0 -272 94q-99 90 -99 226zM313 307 q0 -121 166 -121q188 0 240 119q14 31 14 92v113q-77 -38 -215 -61q-205 -29 -205 -142z" />
<glyph unicode="`" horiz-adv-x="1193" d="M131 0v1446h244v-508q126 117 297 117q180 0 311 -147q137 -156 137 -392q0 -242 -141 -398q-134 -149 -324 -149q-161 0 -280 137v-106h-244zM371 528q0 -82 16 -131q49 -194 236 -194q122 0 187 108q52 86 56 209q5 145 -75 232q-72 79 -179 79q-95 0 -162 -69 q-79 -82 -79 -234z" />
<glyph unicode="a" horiz-adv-x="1024" d="M49 512q0 234 149 389q148 154 367 154q312 0 442 -291l-219 -102q-17 64 -69 112q-67 62 -162 62q-110 0 -180 -82q-74 -87 -74 -236q0 -141 68 -229q71 -90 190 -90q170 0 246 200l211 -110q-57 -157 -194 -243q-122 -77 -267 -77q-217 0 -361 150q-147 154 -147 393z " />
<glyph unicode="b" horiz-adv-x="1193" d="M73 489q0 239 123 398q129 168 342 168q171 0 274 -115v506h244v-1446h-244v98q-106 -129 -284 -129q-193 0 -319 134q-136 143 -136 386zM329 516q0 -89 31 -170q60 -156 211 -156q103 0 168 75q71 82 71 233v8q-4 151 -55 227q-63 94 -180 94q-118 0 -185 -95 q-61 -85 -61 -216z" />
<glyph unicode="c" d="M69 516q0 251 147 398q140 141 363 141q275 0 403 -193q100 -140 105 -399h-758q45 -254 291 -254q165 0 266 141l209 -121q-194 -260 -500 -260q-219 0 -363 132q-163 149 -163 415zM337 643h480q-31 215 -230 215q-205 0 -250 -215z" />
<glyph unicode="d" horiz-adv-x="641" d="M8 850v176h154v117v14q0 137 39 193q70 98 290 98q49 0 140 -8v-209q-31 6 -78 6q-95 0 -129 -51q-17 -29 -17 -76v-84h224v-176h-224v-850h-245v850h-154z" />
<glyph unicode="e" horiz-adv-x="1193" d="M69 549q0 258 160 396q128 110 301 110q184 0 291 -137v106h243v-840q-3 -285 -65 -370q-118 -156 -426 -156q-247 0 -359 99q-80 71 -112 223h270q40 -127 209 -127q146 0 203 81q37 52 37 236q-120 -111 -308 -111q-191 0 -312 123q-132 133 -132 367zM321 555 q0 -130 72 -202q69 -68 182 -68q108 0 174 59q78 70 78 205q0 125 -64 203q-69 84 -190 84q-104 0 -173 -67q-79 -76 -79 -214z" />
<glyph unicode="f" horiz-adv-x="1193" d="M126 0v1446h246v-526q135 135 325 135q181 0 281 -111q86 -92 86 -311v-633h-242v563q-5 118 -16 146q-45 112 -178 112q-104 0 -177 -71q-54 -52 -71 -115q-8 -33 -8 -164v-471h-246z" />
<glyph unicode="g" horiz-adv-x="512" d="M133 0v1024h244v-1024h-244zM133 1184v248h244v-248h-244z" />
<glyph unicode="h" horiz-adv-x="512" d="M2 -104q81 0 113 38q22 27 22 156v936h244v-1034q0 -138 -12 -172q-50 -152 -312 -152q-24 0 -55 2v226zM137 1186v248h242v-248h-242z" />
<glyph unicode="i" horiz-adv-x="1110" d="M131 0v1446h244v-813l399 391h313l-391 -391l430 -633h-299l-309 459l-143 -142v-317h-244z" />
<glyph unicode="j" horiz-adv-x="512" d="M133 0v1446h248v-1446h-248z" />
<glyph unicode="k" horiz-adv-x="1792" d="M131 0v1024h244v-115q116 146 323 146q197 0 285 -158q113 158 328 158q174 0 270 -105q80 -88 80 -305v-645h-244v565q0 122 -16 165q-35 93 -156 93q-115 0 -174 -96q-53 -86 -53 -246v-481h-244v571q0 101 -8 131q-33 121 -158 121q-121 0 -188 -118q-45 -84 -45 -277 v-428h-244z" />
<glyph unicode="l" d="M129 0v1024h248v-121q32 48 80 80q97 72 235 72q178 0 268 -123q64 -86 64 -330v-602h-244v522q0 127 -8 156q-34 137 -168 137q-129 0 -188 -115q-39 -75 -39 -256v-444h-248z" />
<glyph unicode="m" horiz-adv-x="1193" d="M71 516q0 235 147 387t375 152q223 0 371 -142q158 -150 160 -397q0 -241 -144 -393q-146 -154 -377 -154q-237 0 -386 156q-146 153 -146 391zM327 522q0 -152 83 -243q77 -84 193 -84q128 0 201 99q62 85 62 207v19q-4 134 -75 221q-75 93 -200 93q-116 0 -190 -85 q-74 -87 -74 -227z" />
<glyph unicode="n" horiz-adv-x="1193" d="M133 -334v1358h244v-94q118 125 280 125q215 0 346 -171q119 -156 119 -382q0 -231 -129 -381q-131 -152 -336 -152q-156 0 -280 115v-418h-244zM375 518v-12q0 -143 72 -226q68 -79 178 -79q101 0 168 70q79 83 79 243q0 168 -98 249q-69 56 -154 56q-96 0 -163 -68 q-80 -81 -82 -233z" />
<glyph unicode="o" d="M51 502q0 263 151 418q132 135 312 135q184 0 282 -140v109h244v-1358h-244v430q-120 -127 -294 -127q-209 0 -332 154q-119 147 -119 379zM303 502q0 -136 62 -219q66 -88 184 -88q113 0 180 80q71 84 70 235q-3 162 -92 243q-67 62 -158 62q-99 0 -167 -73 q-79 -85 -79 -240z" />
<glyph unicode="p" horiz-adv-x="724" d="M131 0v1024h238v-145q97 168 312 168h15v-252q-147 -6 -221 -62q-71 -54 -92 -143q-14 -60 -14 -211v-379h-238z" />
<glyph unicode="q" horiz-adv-x="1067" d="M45 152l182 151q107 -131 295 -131q97 0 155 41q48 35 48 80q0 68 -107 88l-119 24q-99 19 -120 25q-289 68 -289 291q0 138 114 232q123 102 324 102q199 0 338 -99q59 -38 105 -92l-174 -162q-81 156 -279 156q-170 0 -170 -104q0 -52 54 -78q42 -20 153 -39 q273 -50 338 -100q104 -81 104 -218q0 -135 -111 -235q-129 -115 -349 -115q-304 0 -492 183z" />
<glyph unicode="r" horiz-adv-x="641" d="M8 848v176h150v362h245v-362h219v-176h-219v-463q0 -109 15 -139q21 -43 102 -43q61 0 102 12v-207q-98 -16 -178 -16q-223 0 -270 125q-16 41 -16 209v522h-150z" />
<glyph unicode="s" horiz-adv-x="1193" d="M126 432v592h248v-588q0 -76 8 -102q38 -129 190 -129q132 0 199 108q38 70 41 277v434h246v-1024h-246v104q-135 -129 -332 -129q-191 0 -284 119q-70 88 -70 338z" />
<glyph unicode="t" horiz-adv-x="980" d="M26 1024h254l213 -705l209 705h256l-336 -1024h-264z" />
<glyph unicode="u" horiz-adv-x="1536" d="M34 1024h256l178 -700l191 700h219l188 -700l182 700h256l-307 -1024h-243l-185 653l-196 -653h-242z" />
<glyph unicode="v" horiz-adv-x="1024" d="M18 0l352 549l-311 475h289l168 -258l164 258h290l-309 -475l350 -549h-282l-213 324l-205 -324h-293z" />
<glyph unicode="w" horiz-adv-x="980" d="M24 1024h264l228 -764l194 764h252l-317 -1085q-54 -165 -123 -226q-73 -65 -213 -65q-62 0 -148 12v215q34 -6 66 -6q71 0 110 27q58 36 58 84z" />
<glyph unicode="x" horiz-adv-x="1024" d="M63 0v188l553 617h-498v219h822v-190l-543 -617h543v-217h-877z" />
<glyph unicode="y" horiz-adv-x="724" d="M83 647v129q90 26 125 98q27 58 27 232v74q2 262 81 344q84 83 400 86v-131q-133 -33 -176 -105q-37 -55 -37 -239l2 -2q0 -50 -4 -136q-6 -142 -60 -208q-40 -50 -135 -78q128 -44 168 -129q31 -69 31 -263v-32q0 -172 34 -234q40 -72 177 -110v-129q-310 5 -391 77 q-85 77 -88 324v188q-9 191 -154 244z" />
<glyph unicode="z" horiz-adv-x="468" d="M129 -512v2048h211v-2048h-211z" />
<glyph unicode="{" horiz-adv-x="724" d="M8 -55q133 33 176 104q37 55 37 240l-2 2q0 49 4 135q6 142 60 209q40 49 135 78q-128 44 -168 129q-31 68 -31 262v33q0 172 -34 233q-40 72 -177 111v129q310 -6 391 -78q85 -77 88 -324v-188q9 -191 154 -244v-129q-90 -26 -125 -98q-27 -58 -27 -232v-73 q-2 -263 -82 -344q-83 -84 -399 -86v131z" />
<glyph unicode="|" horiz-adv-x="1366" d="M167 604q124 182 297 182q78 0 219 -65l70 -33q100 -43 149 -43q95 0 201 127l94 -182q-159 -166 -301 -166q-73 0 -211 65l-59 29q-102 47 -158 47q-83 0 -203 -139z" />
<glyph unicode="}" horiz-adv-x="512" d="M81 0v555l78 532h115l75 -532v-555h-268zM81 1163v283h268v-283h-268z" />
<glyph unicode="~" horiz-adv-x="1024" d="M45 524q0 240 141 389q116 122 293 156v203h162v-203q223 -27 360 -283l-217 -102q-53 135 -147 162v-631q126 37 164 191l211 -113q-41 -98 -88 -156q-113 -138 -287 -153v-205h-160v203q-201 33 -309 165q-123 152 -123 377zM297 537q0 -260 180 -314v625 q-76 -36 -115 -86q-65 -83 -65 -225z" />
<glyph unicode="&#xa0;" horiz-adv-x="811" d="M65 1413q0 54 38 87q38 34 97 34q65 0 98 -47q25 -34 17 -94l-94 -531h-56l-96 506q-4 33 -4 45zM491 1413q0 52 38 87q39 34 97 34q77 0 107 -59q14 -25 10 -82l-96 -531h-56l-96 506q-4 33 -4 45z" />
<glyph unicode="&#xa1;" horiz-adv-x="1280" d="M100 215q0 110 71 171q63 54 158 54q66 0 152 -28q4 20 4 34q0 71 -55 119h-269v217h164q-88 107 -88 246q0 208 176 315q131 80 293 80q249 0 373 -161q89 -119 80 -373h-266q10 45 10 88q0 104 -68 166q-58 53 -135 53q-76 0 -132 -49q-60 -54 -60 -141 q0 -101 100 -224h254v-217h-160q14 -89 14 -147q0 -61 -14 -125q91 -60 141 -60q109 0 109 195v47h264q5 -166 -47 -297q-76 -194 -266 -194q-95 0 -199 49l-94 47q-169 -96 -264 -96q-111 0 -180 67q-66 65 -66 164zM295 207q0 -45 55 -45q52 0 80 55q-43 35 -80 35 q-55 0 -55 -45z" />
<glyph unicode="&#xa2;" horiz-adv-x="256" d="M-296 49l768 1413l94 -49l-772 -1413z" />
<glyph unicode="&#xa3;" horiz-adv-x="1236" d="M6 1405h305l305 -584l314 584h301l-297 -524h172v-203h-291l-70 -125h361v-203h-361v-350h-264v350h-362v203h360l-63 125h-297v203h182z" />
<glyph unicode="&#xa4;" horiz-adv-x="894" d="M30 -346l27 217q35 -10 71 -10q52 0 73 43q16 34 30 143l88 750h-160l21 174h159q22 221 51 289q65 145 299 145q74 0 166 -12l-22 -207q-62 4 -80 4q-90 0 -122 -44q-25 -33 -32 -124l-4 -51h211l-18 -174h-213l-94 -797q-27 -213 -76 -279q-71 -88 -217 -88 q-66 0 -158 21z" />
<glyph unicode="&#xa5;" horiz-adv-x="1323" d="M88 770q0 182 217 305q-80 80 -80 180q0 138 117 221q111 78 283 78q264 0 481 -137l-115 -174q-233 107 -346 107q-145 0 -145 -72q0 -49 123 -98l188 -82q214 -97 293 -161q133 -107 133 -261q0 -222 -219 -328q84 -90 84 -188q0 -113 -94 -195q-113 -98 -316 -98 q-280 0 -506 162l119 168q196 -125 383 -125q137 0 137 84q0 48 -98 92q-60 24 -133 59l-137 60q-369 162 -369 403zM348 807q0 -99 176 -172q90 -40 181 -83l108 -50l59 -33q90 71 90 162q0 80 -77 135q-95 71 -232 117q-37 12 -129 49l-53 24q-45 -16 -70 -36 q-53 -47 -53 -113z" />
<glyph unicode="&#xa6;" horiz-adv-x="1366" d="M49 221l164 160q-98 156 -98 315q0 152 96 312l-158 157l156 158l159 -158q162 97 320 97q145 0 307 -97l160 158l160 -158l-162 -157q96 -158 96 -308q0 -176 -98 -321l162 -162l-160 -158l-160 162q-161 -94 -309 -94q-168 0 -316 96l-161 -160zM323 692 q0 -156 109 -260q104 -100 250 -100q151 0 253 101q104 103 105 261q2 160 -110 265q-105 98 -246 98q-148 0 -251 -97q-110 -104 -110 -268z" />
<glyph unicode="&#xa7;" horiz-adv-x="425" d="M88 1413q0 59 45 93q38 28 88 28q63 0 100 -47q22 -29 17 -94l-96 -531h-56l-96 506q-2 16 -2 45z" />
<glyph unicode="&#xa8;" horiz-adv-x="768" d="M75 893v252q0 160 43 213q60 76 209 98v-108q-76 -24 -97 -67q-14 -28 -14 -105h125v-283h-266zM425 893v252q0 160 43 213q61 76 209 98v-108q-75 -24 -97 -67q-13 -28 -13 -105h124v-283h-266z" />
<glyph unicode="&#xa9;" horiz-adv-x="894" d="M120 500v288l291 234v-234l-176 -145l176 -143v-230zM493 500v288l291 234v-234l-177 -145l177 -143v-230z" />
<glyph unicode="&#xaa;" horiz-adv-x="512" d="M114 500v288l291 234v-234l-176 -145l176 -143v-230z" />
<glyph unicode="&#xab;" horiz-adv-x="512" d="M102 264v232l176 147l-176 141v232l291 -232v-288z" />
<glyph unicode="&#xac;" d="M8 850v176h154v117q-2 148 39 207q70 98 290 98q49 0 140 -8v-209q-31 6 -78 6q-94 0 -125 -47q-21 -31 -21 -105v-59h224v-176h-224v-850h-245v850h-154zM774 0v1026h244v-1026h-244zM774 1186v248h244v-248h-244z" />
<glyph unicode="&#xad;" horiz-adv-x="980" d="M26 0l688 1446h242l-686 -1446h-244z" />
<glyph unicode="&#xae;" d="M8 850v176h154v117q-2 148 39 207q70 98 290 98q49 0 140 -8v-209q-31 6 -78 6q-94 0 -125 -47q-21 -31 -21 -105v-59h224v-176h-224v-850h-245v850h-154zM774 0v1448h248v-1448h-248z" />
<glyph unicode="&#xaf;" d="M86 528v228h979v-228h-979z" />
<glyph unicode="&#xb0;" horiz-adv-x="1110" d="M81 750v229h346v467h258v-467h344v-229h-344v-840h-258v840h-346z" />
<glyph unicode="&#xb1;" horiz-adv-x="1024" d="M59 264v207h334v406h-334v208h334v363h244v-363h329v-211h-332v-403h326v-207h-330v-360h-241v360h-330z" />
<glyph unicode="&#xb2;" horiz-adv-x="425" d="M75 504v280h270v-280h-270z" />
<glyph unicode="&#xb3;" horiz-adv-x="1366" d="M174 1022q0 165 92 274q118 145 367 150h491v-135h-71v-1653h-146v1653h-268v-1653h-146v969q-154 37 -229 125q-90 107 -90 270z" />
<glyph unicode="&#xb4;" horiz-adv-x="681" d="M49 721q0 120 86 205q85 86 205 86t205 -86q86 -85 86 -205t-86 -205q-85 -86 -205 -86t-205 86q-86 85 -86 205z" />
<glyph unicode="&#xb5;" horiz-adv-x="425" d="M79 0v285h266v-254q0 -160 -43 -213q-68 -85 -209 -97v109q75 22 97 67q14 29 14 103h-125z" />
<glyph unicode="&#xb6;" horiz-adv-x="768" d="M75 0v285h266v-254q0 -160 -43 -213q-68 -85 -209 -97v109q75 22 97 67q14 29 14 103h-125zM423 0v285h266v-254q0 -160 -43 -213q-68 -85 -209 -97v109q75 22 97 67q14 29 14 103h-125z" />
<glyph unicode="&#xb7;" horiz-adv-x="768" d="M75 1163v283h266v-252q0 -160 -43 -213q-60 -76 -209 -98v108q76 24 97 67q14 28 14 105h-125zM425 1163v283h266v-252q0 -160 -43 -213q-60 -76 -208 -98v108q75 24 96 67q14 28 14 105h-125z" />
<glyph unicode="&#xb8;" horiz-adv-x="894" d="M108 270v234l176 145l-176 144v229l291 -229v-289zM481 270v234l176 145l-176 144v229l291 -229v-289z" />
<glyph unicode="&#xb9;" horiz-adv-x="2048" d="M206 0v281h270v-281h-270zM888 0v281h270v-281h-270zM1570 0v281h270v-281h-270z" />
<glyph unicode="&#xba;" horiz-adv-x="2560" d="M53 926q0 291 141 403q81 66 197 66q105 0 182 -56q139 -102 146 -401q0 -164 -31 -252q-81 -225 -305 -225q-102 0 -174 49q-156 104 -156 416zM237 918q0 -297 152 -297q145 0 145 315q0 303 -147 303q-150 0 -150 -321zM487 -10l645 1399l140 -66l-644 -1397z M1073 461q0 291 151 401q79 58 187 58q95 0 164 -46q156 -99 164 -417q0 -166 -35 -258q-82 -213 -299 -213q-113 0 -193 61q-139 107 -139 414zM1257 442q0 -297 148 -297q149 0 149 306q0 311 -147 311q-55 0 -92 -41q-36 -38 -48 -127q-10 -64 -10 -152zM1841 434 q0 242 88 363q89 123 250 123q322 0 330 -451v-20q0 -192 -58 -299q-88 -164 -280 -164q-170 0 -263 139q-67 104 -67 309zM2027 459q0 -134 18 -197q33 -117 130 -117q149 0 149 301q0 318 -147 318q-150 0 -150 -305z" />
<glyph unicode="&#xbb;" d="M55 401q0 199 166 326q19 16 61 45t62 45q78 64 78 199q0 26 -5 59h240q0 -206 -24 -286q-23 -77 -99 -138q-19 -15 -50 -35q-41 -27 -52 -34q-96 -77 -96 -176q0 -82 63 -140q65 -57 158 -57q115 0 178 86q54 73 57 184l248 -30q-17 -255 -180 -378q-128 -96 -318 -96 q-224 0 -359 126q-128 119 -128 300zM399 1165v281h272v-281h-272z" />
<glyph unicode="&#xbc;" horiz-adv-x="555" d="M73 1448h301l107 -274h-183z" />
<glyph unicode="&#xbd;" horiz-adv-x="555" d="M73 1174l102 272h304l-222 -272h-184z" />
<glyph unicode="&#xbe;" horiz-adv-x="555" d="M-69 1171l227 275h242l227 -275h-250l-96 138l-102 -138h-248z" />
<glyph unicode="&#xbf;" horiz-adv-x="555" d="M-90 1196q10 100 49 160q63 98 164 98q61 0 145 -33q110 -43 144 -43q20 0 39 11q21 11 37 57h157q-13 -79 -16 -90q-48 -162 -189 -162q-55 0 -178 47q-89 33 -119 33q-57 0 -73 -78h-160z" />
<glyph unicode="&#xc0;" horiz-adv-x="555" d="M-71 1200v186h698v-186h-698z" />
<glyph unicode="&#xc1;" horiz-adv-x="555" d="M-22 1446h180q24 -109 123 -109q100 0 123 109h176q-69 -268 -309 -268q-231 0 -293 268z" />
<glyph unicode="&#xc2;" horiz-adv-x="555" d="M139 1200v248h274v-248h-274z" />
<glyph unicode="&#xc3;" horiz-adv-x="555" d="M-45 1202v244h231v-244h-231zM367 1202v244h231v-244h-231z" />
<glyph unicode="&#xc4;" horiz-adv-x="555" d="M69 1356q0 86 61 147q62 62 148 62t147 -62q62 -61 62 -147t-62 -148q-61 -61 -147 -61t-148 61q-61 62 -61 148zM192 1356q0 -36 25 -61q26 -25 61 -25t61 25q25 25 25 61q0 35 -25 60q-26 26 -61 26t-61 -26q-25 -25 -25 -60z" />
<glyph unicode="&#xc5;" horiz-adv-x="555" d="M69 -188l207 213h92l-92 -119q77 5 136 -25q71 -35 71 -104q0 -160 -316 -160q-41 0 -86 4v64q15 -4 33 -4q131 0 131 53q0 51 -133 51q-27 0 -43 -2v29z" />
<glyph unicode="&#xc6;" horiz-adv-x="555" d="M-88 1176l106 270h273l-197 -270h-182zM264 1176l109 270h270l-196 -270h-183z" />
<glyph unicode="&#xc7;" horiz-adv-x="555" d="M90 -236q0 95 131 248h170l-49 -57q-47 -58 -47 -105q0 -65 94 -65h74v-188h-152q-84 0 -135 24q-86 49 -86 143z" />
<glyph unicode="&#xc8;" horiz-adv-x="555" d="M-69 1448h248l98 -131l103 131h245l-229 -277h-236z" />
<glyph unicode="&#xc9;" horiz-adv-x="1449" d="M86 528v228h1278v-228h-1278z" />
<glyph unicode="&#xca;" horiz-adv-x="2134" d="M12 0l856 1446h1186v-244h-754v-342h656v-237h-656v-377h785v-246h-1057v338h-508l-193 -338h-315zM659 582h369v659z" />
<glyph unicode="&#xcb;" horiz-adv-x="681" d="M79 1044q0 94 77 139q44 26 159 50q110 23 139 35q6 86 -96 86q-109 0 -109 -84l-143 10q23 182 252 182q118 0 180 -47q47 -31 55 -112v-349q2 -45 25 -82h-140q-12 27 -14 46q-91 -58 -184 -58q-85 0 -142 50q-59 52 -59 134zM229 1044q0 -59 81 -59q73 0 113 35 q29 22 29 78v49q-79 -20 -111 -27q-112 -19 -112 -76z" />
<glyph unicode="&#xcc;" horiz-adv-x="1067" d="M57 174v270l111 127v877h272v-567l283 317v-278l-283 -320v-354h573v-246h-845v297z" />
<glyph unicode="&#xcd;" horiz-adv-x="1579" d="M49 201l143 127q-98 166 -98 387q0 346 203 560q196 208 502 208q265 0 471 -197l127 113l120 -137l-137 -121q109 -190 109 -422q0 -299 -171 -512q-194 -244 -530 -244q-292 0 -493 219l-129 -116zM366 745q0 -132 43 -223l666 594q-123 123 -276 123q-187 0 -312 -148 q-121 -144 -121 -346zM500 362q98 -151 288 -151q181 0 303 138q125 141 125 358q0 139 -47 247z" />
<glyph unicode="&#xce;" horiz-adv-x="2260" d="M96 694q0 366 225 589q201 200 477 200q168 0 330 -99v62h1030v-246h-762v-346h666v-233h-666v-377h809v-244h-1077v51q-170 -88 -352 -88q-294 0 -485 205q-195 208 -195 526zM383 700q0 -240 132 -375q120 -122 306 -122q144 0 236 74q71 58 71 108v545q0 119 -20 153 q-88 144 -297 144q-178 0 -296 -127q-132 -144 -132 -400z" />
<glyph unicode="&#xcf;" horiz-adv-x="681" d="M49 1155q0 131 80 218q83 89 213 89q128 0 209 -84q83 -86 82 -225q-3 -134 -85 -218q-82 -85 -210 -85q-123 0 -205 86q-84 87 -84 219zM199 1157q-2 -86 43 -135q39 -43 98 -43q64 0 105 48q42 50 42 134q0 76 -38 125q-39 49 -103 49q-55 0 -95 -36q-51 -47 -52 -142z " />
<glyph unicode="&#xd0;" horiz-adv-x="1792" d="M59 279q0 168 155 259q87 50 281 93q190 41 250 65q-7 181 -192 181q-198 0 -207 -166h-238q37 344 422 344q233 0 358 -135q145 135 332 135q260 0 398 -185q110 -154 114 -405h-747q8 -121 73 -194q73 -83 201 -83q137 0 248 140l197 -121q-190 -238 -482 -238 q-211 0 -379 152q-183 -152 -401 -152q-175 0 -266 72q-117 88 -117 238zM319 285q0 -135 174 -135q169 0 225 141q18 42 27 201q-63 -27 -252 -66q-174 -33 -174 -141zM987 641h454q-41 215 -229 215q-96 0 -158 -61q-59 -59 -67 -154z" />
<glyph unicode="&#xd1;" horiz-adv-x="512" d="M133 0v1024h244v-1024h-244z" />
<glyph unicode="&#xd2;" horiz-adv-x="512" d="M24 487v232l109 123v604h247v-324l103 109v-234l-103 -114v-883h-247v604z" />
<glyph unicode="&#xd3;" horiz-adv-x="1193" d="M18 162l117 90q-74 121 -74 266q0 220 139 372q150 165 393 165q212 0 367 -140l105 84l92 -114l-113 -90q76 -140 76 -287q0 -216 -124 -364q-145 -175 -415 -175q-208 0 -362 158l-111 -86zM305 520q0 -56 14 -119l461 369q-69 84 -191 84q-97 0 -174 -62 q-110 -89 -110 -272zM395 272q80 -100 203 -100q98 0 176 65q106 88 106 263q0 80 -26 141z" />
<glyph unicode="&#xd4;" horiz-adv-x="1878" d="M69 502q0 243 144 398q143 155 366 155q211 0 362 -154q172 154 361 154q123 0 227 -49q102 -53 172 -152q98 -134 111 -401h-735q38 -265 266 -265q153 0 248 140l198 -121q-37 -56 -104 -113q-154 -125 -356 -125q-250 0 -377 185q-135 -185 -381 -185q-244 0 -379 161 q-123 145 -123 372zM317 510q0 -129 60 -216q71 -101 202 -101q107 0 179 71q83 83 83 240q-1 155 -82 242q-72 79 -184 79q-121 0 -192 -94q-66 -87 -66 -221zM1077 629h450q-41 213 -227 213q-188 0 -223 -213z" />
<glyph unicode="&#xd5;" d="M133 0v1010q2 132 6 155q21 141 145 225q118 80 283 80q189 0 320 -97q139 -104 139 -267q0 -201 -184 -262q76 -36 102 -58q135 -106 135 -340q0 -206 -105 -331q-110 -131 -309 -131q-113 0 -196 30v238q75 -45 139 -45q76 0 134 52q77 69 77 206q0 299 -350 280v185 q49 -4 65 -4q104 0 162 53q51 48 51 119q0 65 -44 106q-47 45 -130 45q-88 0 -139 -47q-50 -48 -53 -231v-971h-248z" />
<glyph unicode="&#xd6;" horiz-adv-x="468" d="M129 358h211v-716h-211v716zM129 666v716h211v-716h-211z" />
<glyph unicode="&#xd7;" horiz-adv-x="1579" d="M98 721q0 330 199 547q197 215 495 215q286 0 482 -195q212 -212 210 -565q-1 -324 -182 -535q-192 -225 -514 -225q-306 0 -497 221q-193 223 -193 537zM377 733q0 -239 120 -382q115 -138 299 -138q159 0 275 109q139 131 143 370q5 226 -103 378q-117 165 -321 165 q-186 0 -300 -138q-113 -138 -113 -364zM506 1833h290l111 -248h-182z" />
<glyph unicode="&#xd8;" horiz-adv-x="1409" d="M75 727q0 354 205 562q190 194 481 194q451 0 588 -447l-268 -71q-12 80 -54 143q-86 127 -260 127q-178 0 -288 -136q-111 -138 -111 -368q0 -239 115 -379q110 -133 286 -133q167 0 277 143q41 56 76 148l253 -107q-52 -127 -124 -215q-150 -179 -467 -219l-47 -63 q76 5 136 -25q70 -35 70 -104q0 -158 -315 -158q-41 0 -86 4v64q14 -4 33 -4q131 0 131 53q0 49 -133 49q-27 0 -43 -2v29l153 157q-311 54 -454 244q-154 202 -154 514z" />
<glyph unicode="&#xd9;" horiz-adv-x="1366" d="M139 205l391 393l-391 393l152 152l391 -393l391 393l153 -152l-393 -393l393 -393l-153 -152l-391 393l-391 -393z" />
<glyph unicode="&#xda;" horiz-adv-x="1449" d="M167 0v1446h244l639 -1022l-33 1022h266v-1446h-235l-633 1014l16 -1014h-264zM366 1575q10 100 49 160q62 98 164 98q64 0 147 -35q105 -43 141 -43q20 0 39 12q24 14 37 66h160q-11 -113 -55 -176q-55 -84 -152 -84q-58 0 -176 47q-94 33 -121 33q-57 0 -74 -78h-159z " />
<glyph unicode="&#xdb;" horiz-adv-x="1579" d="M98 721q0 330 199 547q197 215 495 215q286 0 482 -195q212 -212 210 -565q-1 -324 -182 -535q-192 -225 -514 -225q-306 0 -497 221q-193 223 -193 537zM377 733q0 -239 120 -382q115 -138 299 -138q159 0 275 109q139 131 143 370q5 226 -103 378q-117 165 -321 165 q-186 0 -300 -138q-113 -138 -113 -364zM430 1575q10 100 49 160q62 98 164 98q65 0 147 -35q105 -43 142 -43q19 0 38 12q24 14 37 66h160q-11 -113 -55 -176q-54 -84 -152 -84q-58 0 -176 47q-94 33 -121 33q-57 0 -73 -78h-160z" />
<glyph unicode="&#xdc;" horiz-adv-x="1193" d="M126 -332v1358h248v-530q0 -289 215 -289q144 0 192 117q31 74 31 251v451h246v-1024h-246v104q-118 -129 -237 -129q-122 0 -201 103v-412h-248z" />
<glyph unicode="&#xdd;" horiz-adv-x="1579" d="M98 721q0 330 199 547q197 215 495 215q286 0 482 -195q212 -212 210 -565q-1 -324 -182 -535q-192 -225 -514 -225q-306 0 -497 221q-193 223 -193 537zM377 733q0 -239 120 -382q115 -138 299 -138q159 0 275 109q139 131 143 370q5 226 -103 378q-117 165 -321 165 q-186 0 -300 -138q-113 -138 -113 -364zM676 1587l108 246h293l-219 -246h-182z" />
<glyph unicode="&#xde;" horiz-adv-x="1193" d="M133 -334v1780h244v-516q118 125 280 125q215 0 346 -171q119 -156 119 -382q0 -232 -131 -382q-130 -151 -332 -151q-157 0 -282 115v-418h-244zM375 518q-3 -151 72 -238q68 -79 178 -79q101 0 168 70q79 83 79 243q0 168 -98 249q-69 56 -154 56q-96 0 -163 -68 q-80 -81 -82 -233z" />
<glyph unicode="&#xdf;" horiz-adv-x="1193" d="M71 522q0 242 154 394q141 141 338 141q121 0 208 -76q-24 104 -100 203l-336 -90l-39 108l293 80l-96 96l229 99q56 -56 115 -127l190 51l41 -109l-157 -43q215 -322 215 -671q0 -201 -66 -332q-135 -275 -452 -275q-281 0 -425 192q-112 150 -112 359zM327 524 q0 -154 85 -244q78 -83 194 -83q127 0 200 98q67 91 62 225q-5 135 -76 221q-76 93 -199 93q-114 0 -188 -82q-78 -86 -78 -228z" />
<glyph unicode="&#xe0;" horiz-adv-x="598" d="M16 1833h291l110 -248h-182zM163 0v1446h267v-1446h-267z" />
<glyph unicode="&#xe1;" horiz-adv-x="1579" d="M98 721q0 330 199 547q197 215 495 215q286 0 482 -195q212 -212 210 -565q-1 -324 -182 -535q-192 -225 -514 -225q-306 0 -497 221q-193 223 -193 537zM377 733q0 -239 120 -382q115 -138 299 -138q159 0 275 109q139 131 143 370q5 226 -103 378q-117 165 -321 165 q-186 0 -300 -138q-113 -138 -113 -364zM465 1583l204 250h242l213 -250h-248l-86 115l-86 -115h-239z" />
<glyph unicode="&#xe2;" horiz-adv-x="1280" d="M159 0v1446h1028v-242h-762v-340h697v-233h-697v-387h813v-244h-1079zM526 1587l108 246h293l-219 -246h-182z" />
<glyph unicode="&#xe3;" horiz-adv-x="1280" d="M159 0v1446h1028v-242h-762v-340h697v-233h-697v-387h813v-244h-1079zM319 1581v252h229v-252h-229zM728 1581v252h234v-252h-234z" />
<glyph unicode="&#xe4;" horiz-adv-x="1323" d="M14 0l487 1446h308l493 -1446h-289l-84 283h-542l-84 -283h-289zM458 518h400l-199 666zM549 1587l108 246h293l-219 -246h-182z" />
<glyph unicode="&#xe5;" horiz-adv-x="1236" d="M49 0v221l791 981h-723v244h1060v-232l-759 -970h759v-244h-1128zM289 1833h243l88 -115l86 115h242l-205 -252h-241z" />
<glyph unicode="&#xe6;" horiz-adv-x="1024" d="M49 512q0 234 149 389q148 154 369 154q315 0 440 -291l-219 -102q-47 174 -231 174q-110 0 -180 -82q-74 -87 -74 -236q0 -141 69 -229q71 -90 189 -90q168 0 248 200l209 -110q-31 -92 -101 -166q-103 -112 -311 -148l-53 -69q77 5 136 -25q71 -35 71 -104 q0 -158 -316 -158q-41 0 -86 4v64q15 -4 33 -4q131 0 131 53q0 49 -135 49q-27 0 -41 -2v29l158 163q-212 38 -314 150q-141 154 -141 387z" />
<glyph unicode="&#xe7;" horiz-adv-x="1366" d="M0 496v211h1366v-707h-211v496h-1155z" />
<glyph unicode="&#xe8;" horiz-adv-x="1323" d="M14 0l487 1446h308l493 -1446h-289l-84 283h-542l-84 -283h-289zM303 1575q10 100 49 160q62 98 164 98q65 0 147 -35q105 -43 142 -43q19 0 38 12q24 14 37 66h160q-11 -113 -55 -176q-54 -84 -152 -84q-58 0 -176 47q-94 33 -121 33q-57 0 -73 -78h-160zM458 518h400 l-199 666z" />
<glyph unicode="&#xe9;" horiz-adv-x="1280" d="M167 0v1446h272v-205h215q164 0 248 -22q134 -37 223 -135q117 -127 117 -324q0 -162 -77 -279q-91 -138 -271 -178q-80 -18 -244 -18h-211v-285h-272zM439 508h195q106 0 154 12q178 44 178 246q0 119 -72 184q-70 60 -250 60h-205v-502z" />
<glyph unicode="&#xea;" horiz-adv-x="1792" d="M133 1096v121l43 2q184 5 207 174h143v-916h-172v561q0 37 -24 48q-17 8 -68 8zM487 -10l645 1399l140 -66l-643 -1399zM1069 207v129l397 567h170v-553h115v-145h-121v-205h-164v207h-397zM1253 352h219l4 346z" />
<glyph unicode="&#xeb;" horiz-adv-x="1323" d="M14 0l487 1446h308l493 -1446h-289l-84 283h-542l-84 -283h-289zM338 1583l204 250h242l213 -250h-248l-86 115l-86 -115h-239zM458 518h400l-199 666z" />
<glyph unicode="&#xec;" horiz-adv-x="1579" d="M98 721q0 330 199 547q197 215 495 215q286 0 482 -195q212 -212 210 -565q-1 -324 -182 -535q-192 -225 -514 -225q-306 0 -497 221q-193 223 -193 537zM377 733q0 -239 120 -382q115 -138 299 -138q159 0 275 109q139 131 143 370q5 226 -103 378q-117 165 -321 165 q-186 0 -300 -138q-113 -138 -113 -364zM471 1581v252h229v-252h-229zM880 1581v252h234v-252h-234z" />
<glyph unicode="&#xed;" horiz-adv-x="1792" d="M43 778h178q14 -168 146 -168q66 0 104 44q35 39 35 100q0 116 -152 129h-57v145h55q135 0 135 100q0 111 -116 111q-106 0 -131 -152l-174 41q20 105 71 162q87 105 246 105q131 0 212 -78q75 -71 75 -170q0 -136 -146 -186q164 -62 164 -211q0 -127 -85 -206 q-89 -83 -238 -83q-180 0 -263 108q-54 69 -59 209zM537 -10l643 1396l139 -63l-641 -1399zM1069 207v129l395 569h170v-555h115v-145h-119v-205h-164v207h-397zM1251 352h219l5 346z" />
<glyph unicode="&#xee;" horiz-adv-x="1492" d="M163 584v862h270v-889q0 -126 19 -176q62 -156 293 -156q149 0 231 72q80 72 80 274v875h272v-911q-2 -159 -21 -228q-31 -115 -134 -203q-162 -141 -437 -141q-144 0 -256 39q-232 80 -297 293q-17 62 -20 289zM423 1583l205 250h242l213 -250h-248l-86 115l-86 -115 h-240z" />
<glyph unicode="&#xef;" horiz-adv-x="1492" d="M163 584v862h270v-889q0 -126 19 -176q62 -156 293 -156q149 0 231 72q80 72 80 274v875h272v-911q-2 -159 -21 -228q-31 -115 -134 -203q-162 -141 -437 -141q-144 0 -256 39q-232 80 -297 293q-17 62 -20 289zM464 1833h291l110 -248h-182z" />
<glyph unicode="&#xf0;" horiz-adv-x="1492" d="M163 584v862h270v-889q0 -126 19 -176q62 -156 293 -156q149 0 231 72q80 72 80 274v875h272v-911q-2 -159 -21 -228q-31 -115 -134 -203q-162 -141 -437 -141q-144 0 -256 39q-232 80 -297 293q-17 62 -20 289zM425 1581v252h230v-252h-230zM835 1581v252h233v-252h-233 z" />
<glyph unicode="&#xf1;" horiz-adv-x="598" d="M163 0v1446h266v-1446h-266zM186 1587l108 246h293l-219 -246h-182z" />
<glyph unicode="&#xf2;" horiz-adv-x="1323" d="M14 0l487 1446h308l493 -1446h-289l-84 283h-542l-84 -283h-289zM379 1833h290l111 -248h-182zM458 518h400l-199 666z" />
<glyph unicode="&#xf3;" horiz-adv-x="724" d="M10 1194q0 146 103 249t249 103t249 -103q104 -103 104 -249t-104 -249q-103 -103 -249 -103t-249 103t-103 249zM215 1194q0 -61 43 -104t104 -43q62 0 105 43t43 104t-43 104t-105 43q-61 0 -104 -43t-43 -104z" />
<glyph unicode="&#xf4;" horiz-adv-x="1792" d="M133 1096v121l43 2q184 5 207 174h143v-918h-172v563q0 37 -24 48q-17 8 -68 8zM471 -10l645 1399l137 -66l-641 -1399zM1096 565q10 135 32 185q72 170 277 170q143 0 222 -87q71 -77 71 -194q0 -133 -97 -251q-65 -78 -268 -243h383v-145h-616v135q169 121 284 246 q123 129 123 250q0 127 -114 127q-72 0 -98 -60q-16 -37 -23 -147z" />
<glyph unicode="&#xf5;" horiz-adv-x="1366" d="M0 496v211h1366v-211h-1366z" />
<glyph unicode="&#xf6;" horiz-adv-x="1280" d="M20 1446h305l313 -600l318 600h301l-487 -875v-571h-267v571zM526 1587l108 246h293l-219 -246h-182z" />
<glyph unicode="&#xf7;" horiz-adv-x="768" d="M71 1040q11 135 33 185q71 170 276 170q143 0 223 -87q70 -77 70 -194q0 -133 -97 -251q-65 -78 -267 -242h383v-146h-617v135q169 121 285 246q123 129 123 250q0 127 -115 127q-72 0 -97 -60q-16 -37 -24 -147z" />
<glyph unicode="&#xf8;" horiz-adv-x="1492" d="M163 584v862h270v-889q0 -126 19 -176q62 -156 293 -156q149 0 231 72q80 72 80 274v875h272v-911q-2 -159 -21 -228q-31 -115 -134 -203q-162 -141 -437 -141q-144 0 -256 39q-232 80 -297 293q-17 62 -20 289zM634 1587l109 246h292l-219 -246h-182z" />
<glyph unicode="&#xf9;" horiz-adv-x="1705" d="M124 723q0 310 216 522q212 207 511 207q314 0 525 -217q208 -212 206 -516q-1 -304 -212 -514q-211 -211 -519 -211q-293 0 -506 202q-221 212 -221 527zM190 723q0 -279 194 -472q193 -192 469 -192q280 0 472 193q190 191 192 469q1 275 -188 469q-193 196 -474 196 q-279 0 -473 -195q-192 -193 -192 -468zM527 264v930h318q162 -4 217 -23q158 -51 158 -221q0 -153 -176 -219q96 -50 116 -184q33 -202 76 -283h-223q-30 61 -49 203q-19 132 -47 163q-32 35 -148 38h-47v-404h-195zM722 823h117q84 0 120 14q66 25 66 101q0 69 -57 94 q-31 12 -158 12h-88v-221z" />
<glyph unicode="&#xfa;" horiz-adv-x="1705" d="M124 723q0 307 213 518q212 211 518 211t516 -209q211 -210 211 -522q0 -215 -117 -402q-208 -325 -614 -325q-292 0 -505 202q-222 212 -222 527zM190 721q0 -272 190 -465q194 -197 475 -197q270 0 461 185q198 191 201 477q3 273 -184 467q-192 198 -478 198 q-277 0 -471 -192q-194 -193 -194 -473zM372 725q0 214 136 355q139 145 361 145q221 0 394 -178l-146 -142q-115 121 -250 121q-129 0 -210 -85q-80 -84 -80 -214q0 -137 86 -220q83 -79 209 -79q138 0 245 113l148 -133q-172 -179 -396 -179q-228 0 -366 146 q-131 138 -131 350z" />
<glyph unicode="&#xfb;" horiz-adv-x="1280" d="M159 0v1446h1028v-242h-762v-340h697v-233h-697v-387h813v-244h-1079zM315 1583l204 250h242l213 -250h-248l-86 115l-86 -115h-239z" />
<glyph unicode="&#xfc;" horiz-adv-x="1406" d="M16 1327v119h569v-119h-209v-561h-145v561h-215zM643 766v680h188l164 -514l156 514h190v-680h-141l6 391l8 139l-31 -112l-127 -418h-129l-131 420l-30 108l10 -137l8 -391h-141z" />
<glyph unicode="&#xfd;" horiz-adv-x="1366" d="M86 0v211h1194v-211h-1194zM86 766v211h494v461h211v-461h489v-211h-489v-463h-211v463h-494z" />
<glyph unicode="&#xfe;" horiz-adv-x="1449" d="M6 668v184h139v594h475q181 0 269 -21q210 -49 339 -226q142 -194 142 -488q0 -283 -129 -467q-115 -163 -309 -214q-116 -30 -365 -30h-422v668h-139zM416 244h114q249 0 338 32q215 85 215 433q0 226 -94 348q-108 138 -301 141l-272 2v-350h315v-184h-315v-422z" />
<glyph unicode="&#xff;" horiz-adv-x="1323" d="M14 0l487 1446h308l493 -1446h-289l-84 283h-542l-84 -283h-289zM350 1581v252h229v-252h-229zM458 518h400l-199 666zM759 1581v252h234v-252h-234z" />
<glyph unicode="&#x2c6;" horiz-adv-x="1280" d="M20 1446h305l313 -600l318 600h301l-487 -875v-571h-267v571zM319 1581v252h229v-252h-229zM729 1581v252h233v-252h-233z" />
<glyph unicode="&#x2dc;" horiz-adv-x="598" d="M-24 1583l205 250h241l213 -250h-247l-86 115l-86 -115h-240zM164 0v1446h267v-1446h-267z" />
<glyph unicode="&#x2000;" horiz-adv-x="916" />
<glyph unicode="&#x2001;" horiz-adv-x="1833" />
<glyph unicode="&#x2002;" horiz-adv-x="916" />
<glyph unicode="&#x2003;" horiz-adv-x="1833" />
<glyph unicode="&#x2004;" horiz-adv-x="611" />
<glyph unicode="&#x2005;" horiz-adv-x="458" />
<glyph unicode="&#x2006;" horiz-adv-x="305" />
<glyph unicode="&#x2007;" horiz-adv-x="305" />
<glyph unicode="&#x2008;" horiz-adv-x="229" />
<glyph unicode="&#x2009;" horiz-adv-x="366" />
<glyph unicode="&#x200a;" horiz-adv-x="101" />
<glyph unicode="&#x2010;" horiz-adv-x="980" d="M26 0l688 1446h242l-686 -1446h-244z" />
<glyph unicode="&#x2011;" horiz-adv-x="980" d="M26 0l688 1446h242l-686 -1446h-244z" />
<glyph unicode="&#x2012;" horiz-adv-x="980" d="M26 0l688 1446h242l-686 -1446h-244z" />
<glyph unicode="&#x2013;" horiz-adv-x="1110" d="M53 295q0 74 33 139q75 151 329 199q221 45 318 76q0 155 -174 155q-133 0 -182 -65q-25 -31 -25 -90l-252 14q8 93 41 154q98 178 408 178q196 0 307 -66q123 -75 123 -280v-543q0 -105 45 -166h-291l-6 80q-124 -105 -303 -105q-169 0 -272 94q-99 90 -99 226z M209 1171l227 275h242l227 -275h-250l-96 138l-103 -138h-247zM313 307q0 -121 166 -121q188 0 240 119q14 31 14 92v113q-77 -38 -215 -61q-205 -29 -205 -142z" />
<glyph unicode="&#x2014;" horiz-adv-x="1110" d="M53 295q0 74 33 139q75 151 329 199q221 45 318 76q0 155 -174 155q-133 0 -182 -65q-25 -31 -25 -90l-252 14q8 93 41 154q98 178 408 178q196 0 307 -66q123 -75 123 -280v-543q0 -105 45 -166h-291l-6 80q-124 -105 -303 -105q-169 0 -272 94q-99 90 -99 226z M219 1202v244h231v-244h-231zM313 307q0 -121 166 -121q188 0 240 119q14 31 14 92v113q-77 -38 -215 -61q-205 -29 -205 -142zM631 1202v244h231v-244h-231z" />
<glyph unicode="&#x2018;" horiz-adv-x="1110" d="M53 295q0 74 33 139q75 151 329 199q221 45 318 76q0 155 -174 155q-133 0 -182 -65q-25 -31 -25 -90l-252 14q8 93 41 154q98 178 408 178q196 0 307 -66q123 -75 123 -280v-543q0 -105 45 -166h-291l-6 80q-124 -105 -303 -105q-169 0 -272 94q-99 90 -99 226zM313 307 q0 -121 166 -121q188 0 240 119q14 31 14 92v113q-77 -38 -215 -61q-205 -29 -205 -142zM338 1448h301l106 -274h-182z" />
<glyph unicode="&#x2019;" horiz-adv-x="1110" d="M53 295q0 74 33 139q75 151 329 199q221 45 318 76q0 155 -174 155q-133 0 -182 -65q-25 -31 -25 -90l-252 14q8 93 41 154q98 178 408 178q196 0 307 -66q123 -75 123 -280v-543q0 -105 45 -166h-291l-6 80q-124 -105 -303 -105q-169 0 -272 94q-99 90 -99 226zM313 307 q0 -121 166 -121q188 0 240 119q14 31 14 92v113q-77 -38 -215 -61q-205 -29 -205 -142zM336 1356q0 86 61 147q62 62 148 62t147 -62q61 -61 61 -147t-61 -148q-61 -61 -147 -61t-148 61q-61 62 -61 148zM459 1356q0 -36 25 -61t61 -25q35 0 60 25q26 25 26 61q0 35 -26 60 q-25 26 -60 26q-36 0 -61 -26q-25 -25 -25 -60z" />
<glyph unicode="&#x201a;" horiz-adv-x="1110" d="M53 295q0 74 33 139q75 151 329 199q221 45 318 76q0 155 -174 155q-133 0 -182 -65q-25 -31 -25 -90l-252 14q8 93 41 154q98 178 408 178q196 0 307 -66q123 -75 123 -280v-543q0 -105 45 -166h-291l-6 80q-124 -105 -303 -105q-169 0 -272 94q-99 90 -99 226z M198 1196q11 100 50 160q62 98 163 98q62 0 146 -33q110 -43 143 -43q21 0 39 11q22 11 37 57h158q-13 -79 -17 -90q-47 -162 -188 -162q-56 0 -178 47q-89 33 -119 33q-58 0 -74 -78h-160zM313 307q0 -121 166 -121q188 0 240 119q14 31 14 92v113q-77 -38 -215 -61 q-205 -29 -205 -142z" />
<glyph unicode="&#x201c;" d="M69 516q0 251 147 398q140 141 363 141q275 0 403 -193q100 -140 105 -399h-758q45 -254 291 -254q165 0 266 141l209 -121q-194 -260 -500 -260q-219 0 -363 132q-163 149 -163 415zM337 643h480q-31 215 -230 215q-205 0 -250 -215zM470 1174l103 272h303l-221 -272 h-185z" />
<glyph unicode="&#x201d;" d="M69 516q0 251 147 398q140 141 363 141q275 0 403 -193q100 -140 105 -399h-758q45 -254 291 -254q165 0 266 141l209 -121q-194 -260 -500 -260q-219 0 -363 132q-163 149 -163 415zM229 1171l227 275h242l227 -275h-250l-96 138l-102 -138h-248zM337 643h480 q-31 215 -230 215q-205 0 -250 -215z" />
<glyph unicode="&#x201e;" d="M69 516q0 251 147 398q140 141 363 141q275 0 403 -193q100 -140 105 -399h-758q45 -254 291 -254q165 0 266 141l209 -121q-194 -260 -500 -260q-219 0 -363 132q-163 149 -163 415zM255 1202v244h232v-244h-232zM337 643h480q-31 215 -230 215q-205 0 -250 -215z M667 1202v244h231v-244h-231z" />
<glyph unicode="&#x2022;" horiz-adv-x="512" d="M133 1171l227 275h242l227 -275h-250l-96 138l-102 -138h-248zM358 0v1024h244v-1024h-244z" />
<glyph unicode="&#x2026;" horiz-adv-x="512" d="M133 1202v244h231v-244h-231zM332 0v1024h243v-1024h-243zM545 1202v244h231v-244h-231z" />
<glyph unicode="&#x202f;" horiz-adv-x="366" />
<glyph unicode="&#x2039;" horiz-adv-x="512" d="M133 1448h301l107 -274h-183zM303 0v1024h244v-1024h-244z" />
<glyph unicode="&#x203a;" d="M129 0v1024h248v-121q32 48 80 80q97 72 235 72q178 0 268 -123q64 -86 64 -330v-602h-244v522q0 127 -8 156q-34 137 -168 137q-129 0 -188 -115q-39 -75 -39 -256v-444h-248zM219 1196q11 100 49 160q63 98 164 98q61 0 146 -33q109 -43 143 -43q20 0 39 11 q21 11 37 57h157q-13 -79 -16 -90q-48 -162 -188 -162q-56 0 -179 47q-89 33 -118 33q-58 0 -74 -78h-160z" />
<glyph unicode="&#x205f;" horiz-adv-x="458" />
<glyph unicode="&#x20ac;" horiz-adv-x="1193" d="M71 516q0 235 147 387t375 152q223 0 371 -142q158 -150 160 -397q0 -241 -144 -393q-146 -154 -377 -154q-237 0 -386 156q-146 153 -146 391zM239 1196q10 100 49 160q63 98 164 98q61 0 145 -33q110 -43 144 -43q20 0 39 11q21 11 36 57h158q-13 -79 -16 -90 q-48 -162 -189 -162q-55 0 -178 47q-89 33 -119 33q-57 0 -73 -78h-160zM327 522q0 -152 83 -243q77 -84 193 -84q128 0 201 99q67 91 62 226q-4 134 -75 221q-75 93 -200 93q-116 0 -190 -85q-74 -87 -74 -227z" />
<glyph unicode="&#x2122;" horiz-adv-x="1193" d="M126 432v592h248v-588q0 -76 8 -102q38 -129 190 -129q132 0 199 108q38 70 41 277v434h246v-1024h-246v104q-135 -129 -332 -129q-191 0 -284 119q-70 88 -70 338zM491 1174l102 272h303l-221 -272h-184z" />
<glyph unicode="&#xe000;" horiz-adv-x="1025" d="M0 0v1025h1025v-1025h-1025z" />
</font>
</defs>
</svg>
